<?xml version="1.0" encoding="UTF-8"?>
<svg id="Layer_2" data-name="Layer 2" xmlns="http://www.w3.org/2000/svg" width="114.79" height="70" viewBox="0 0 114.79 70">
  <g id="Layer_1-2" data-name="Layer 1">
    <rect x="34.08" y="54.26" width="25.29" height="7.93" transform="translate(93.45 116.45) rotate(-180)" fill="#0e344c"/>
    <polygon points="77.05 50.67 77.05 61.15 68.41 61.15 64.95 56.13 1.89 56.13 1.89 50.67 77.05 50.67" fill="#1d70b7"/>
    <path d="m77.59,17.47c.02-.35.32-.62.67-.61,3.41.14,19.62.88,22.95,2.49,2.55,1.23,5.34,5.81,7.31,8.89,1.41,2.21,4.53,7.12,5.16,9.63.53,2.13.86,6.54.82,8.73l-.89,11.59h-14.69s-1.47-3.83-1.47-3.83c-.96-2.5-3.36-4.14-6.03-4.14h-14.59v-19.23s.76-13.52.76-13.52Z" fill="#e7422c"/>
    <path d="m102.95,20.63c2.02,1.93,4.05,5.22,5.57,7.61,1.31,2.05,4.08,6.41,4.98,9.03.02.05.03.09.05.14-.45-.12-1.14-.38-1.35-.8-.32-.64-.74-2.84-5.84-11.16-1.56-2.53-3.07-4.01-3.42-4.83Z" fill="#455a64"/>
    <g>
      <path d="m85.13,19.78c3.75.21,11.9.76,14.5,1.66,3.39,1.16,7.19,10.13,7.37,10.52l2.56,6.56c.06.19-.08.38-.27.38h-6.62c-.25,0-.5-.04-.73-.13l-17.42-6.49c-.79-.29-1.31-1.05-1.31-1.89v-8.77c0-1.05.88-1.89,1.93-1.83Z" fill="#0e344c"/>
      <path d="m108.83,38.24s-2.46-5.51-3.28-7.31c-1.25-2.73-4.16-8.31-6.12-8.9-1.81-.54-7.01-1.2-14.32-1.62-.02,0-.05,0-.07,0-.65,0-1.18.53-1.18,1.19v8.97c0,.45.28.86.71,1.02l12.87,1.59c1.04.13,1.98.71,2.56,1.59l2.23,3.4c.13.05.27.07.41.07h6.21Z" fill="#455a64"/>
      <path d="m97.89,33.28l4.38,4.87-2.42-16.18-.61-.21,1.19,11.99c.03.26-.24.46-.48.36l-2.06-.83Z" fill="#0e344c"/>
    </g>
    <path d="m114.79,47.73c.02-.21-.06-.38-.16-.39l-2.35-.22c-.2-.02-.37.35-.4.78l-.11,1.8c-.02.29.07.53.2.56l2.39.41c.11.02.21-.14.23-.35l.19-2.59Z" fill="#ebebeb"/>
    <rect x="97.89" y="56.14" width="16.91" height="6.78" transform="translate(212.68 119.05) rotate(-180)" fill="#1d70b7"/>
    <g>
      <circle cx="86.95" cy="60.75" r="9.25" transform="translate(22.9 145.3) rotate(-87.8)" fill="#0e344c"/>
      <path d="m96.2,60.59s0,.02,0,.02c.07,5.11-4.01,9.31-9.11,9.38-5.11.07-9.31-4.01-9.38-9.11,0,0,0-.02,0-.02l18.49-.27Z" fill="#0e344c"/>
      <path d="m93.44,60.66c.05,3.59-2.81,6.53-6.4,6.59-3.59.05-6.53-2.81-6.59-6.4-.05-3.59,2.81-6.53,6.4-6.59,3.59-.05,6.53,2.81,6.59,6.4Z" fill="#fafafa"/>
      <path d="m86.86,54.26c3.59-.05,6.53,2.81,6.59,6.4l-12.99.19c-.05-3.59,2.81-6.53,6.4-6.59Z" fill="#e0e0e0"/>
      <path d="m90.91,60.69c.03,2.18-1.71,3.98-3.9,4.01-2.18.03-3.98-1.71-4.01-3.9-.03-2.18,1.71-3.98,3.9-4.01,2.18-.03,3.98,1.71,4.01,3.9Z" fill="#0e344c"/>
    </g>
    <g>
      <rect x="103.35" y="25.65" width="3.83" height="9.2" rx="1.92" ry="1.92" transform="translate(210.54 60.5) rotate(180)" fill="#263238"/>
      <path d="m108.77,40.54h.19s0-9.73,0-9.73c0-.97-.79-1.75-1.75-1.75h-.46s0,.19,0,.19h.46c.86,0,1.56.7,1.56,1.56v9.73Z" fill="#263238"/>
      <path d="m107.46,40.55l.54-9.1c.02-.32-.09-.62-.31-.85-.22-.23-.51-.36-.83-.36v.19c.27,0,.51.11.69.3.18.19.27.45.26.71l-.54,9.1h.19Z" fill="#263238"/>
      <rect x="106.85" y="39.66" width="2.6" height="3.01" transform="translate(216.3 82.34) rotate(-180)" fill="#263238"/>
      <rect x="107.81" y="33.95" width="1.06" height=".19" fill="#263238"/>
    </g>
    <path d="m98.99,20.04s-.08-.01-.23-.03c-.15-.02-.38-.05-.68-.08-.6-.07-1.48-.17-2.62-.3-2.29-.26-5.61-.64-9.78-1.11-.52-.06-1.05-.13-1.6-.17-.28-.03-.56,0-.84.06-.28.07-.55.16-.8.3-.51.28-.95.72-1.22,1.26-.14.27-.24.56-.28.87-.03.15-.03.31-.04.46,0,.15,0,.31,0,.46,0,2.49,0,5.17,0,8,0,5.67,0,11.97,0,18.71v.05s.05,0,.05,0c2.17,0,4.4,0,6.67,0,1.14,0,2.28,0,3.44,0,.58,0,1.16-.01,1.73.08.58.07,1.13.26,1.67.47,1.68.72,3.02,2.13,3.66,3.79.07.21.17.41.21.63.05.22.12.43.15.65l.05.33.02.16v.17s.03.33.03.33v.16s0,.02,0,.02c-.04-.04.06.07.05.05h0s.01,0,.01,0h.04s.08,0,.08,0c.88,0,1.76,0,2.63,0,3.48,0,6.85,0,10.06,0h.05s0-.05,0-.05c0-2.91,0-5.71,0-8.39,0-1.34,0-2.65,0-3.92,0-.64,0-1.27,0-1.89,0-.31,0-.62,0-.92,0-.31-.03-.61-.07-.91-.15-1.2-.54-2.33-1.09-3.32-.53-1-1.05-1.96-1.54-2.89-.99-1.86-1.9-3.57-2.73-5.13-.83-1.55-1.57-2.95-2.22-4.16-.16-.3-.32-.6-.47-.88-.08-.14-.14-.28-.23-.41-.08-.13-.17-.25-.26-.37-.37-.46-.78-.81-1.17-1.09-.8-.54-1.52-.76-2-.87-.49-.11-.75-.12-.75-.12,0,0,.06.01.19.03.13.02.31.05.55.11.48.12,1.2.34,1.99.88.39.27.79.63,1.16,1.08.09.11.18.24.26.37.08.13.15.27.22.41.15.28.3.58.47.88.64,1.22,1.38,2.61,2.21,4.17.82,1.56,1.73,3.27,2.72,5.13.49.93,1.01,1.89,1.54,2.89.55.99.93,2.11,1.08,3.3.04.3.06.6.06.9,0,.3,0,.61,0,.92,0,.62,0,1.25,0,1.89,0,1.27,0,2.58,0,3.92,0,2.68,0,5.48,0,8.39l.05-.05c-3.21,0-6.58,0-10.06,0-.87,0-1.75,0-2.63,0h-.08s-.04,0-.04,0h-.02s.09.09.05.05v-.02s0-.17,0-.17l-.02-.33v-.17s-.03-.17-.03-.17l-.05-.33c-.02-.22-.1-.44-.15-.66-.05-.22-.14-.43-.21-.64-.65-1.69-2.01-3.12-3.71-3.85-.55-.22-1.11-.41-1.7-.48-.58-.1-1.17-.08-1.75-.08-1.16,0-2.31,0-3.44,0-2.27,0-4.5,0-6.67,0l.05.05c0-6.74,0-13.04,0-18.71,0-2.83,0-5.51,0-8,0-.31-.01-.62.04-.92.04-.3.14-.59.27-.85.26-.53.69-.96,1.19-1.24.25-.14.52-.23.78-.3.27-.05.55-.08.82-.06.54.05,1.08.12,1.6.17,4.16.46,7.49.83,9.78,1.08,1.14.12,2.03.22,2.62.29.3.03.52.06.68.07.15.02.23.02.23.02Z" fill="#0e344c"/>
    <g>
      <path d="m83.96,41.36s-.05,0-.15-.02c-.1-.02-.24-.06-.4-.16-.15-.1-.32-.27-.4-.53-.04-.13-.06-.26-.05-.42,0-.15.04-.3.12-.45.15-.29.48-.53.87-.53.4,0,.83,0,1.27,0,.9,0,1.88,0,2.92,0,.25,0,.49.1.66.26.18.16.29.39.32.62.02.24,0,.47-.12.67-.11.2-.29.35-.48.43-.2.09-.41.08-.63.08-.21,0-.42,0-.62,0-.4,0-.77,0-1.11,0-.67,0-1.22.01-1.61.02-.18,0-.33,0-.44,0-.1,0-.15,0-.15,0s.05,0,.15,0c.11,0,.25,0,.44,0,.39,0,.94,0,1.61.02.34,0,.71,0,1.11,0,.2,0,.41,0,.62,0,.11,0,.21,0,.33,0,.11,0,.23-.03.34-.08.22-.09.41-.25.53-.47.13-.21.16-.48.13-.72-.03-.25-.15-.5-.35-.68-.19-.18-.46-.29-.73-.29-1.03,0-2.02,0-2.92,0-.45,0-.87,0-1.27,0-.42,0-.77.27-.93.58-.08.16-.12.32-.12.48,0,.15.01.31.06.43.09.26.27.44.44.54.17.1.32.13.41.15.1.01.15,0,.15,0Z" fill="#263238"/>
      <path d="m84.32,38.94s.74.05,1.65.05,1.65-.02,1.65-.05-.74-.05-1.65-.05-1.65.02-1.65.05Z" fill="#fff"/>
    </g>
    <path d="m97.12,62.97l1.54-.11c-.4-5.53-.99-8.83-1.81-10.11-1.56-2.45-3.11-2.89-4.83-3.19-1.6-.27-3.21-.21-4.77-.14l-.38.02c-3.22.13-9.96.01-10.03.01l-.03,1.54c.07,0,6.85.11,10.11-.01l.38-.02c1.48-.06,3.01-.12,4.45.12,1.53.26,2.56.56,3.79,2.49.37.58,1.07,2.58,1.57,9.39Z" fill="#0e344c"/>
    <rect x="0" y="0" width="76.02" height="50.62" transform="translate(76.02 50.62) rotate(-180)" fill="#e7422c"/>
    <path d="m.91,49.61c0-.33.02-18.89.04-48.47l-.04.04c20.37,0,46.23,0,74.29.01h0l-.05-.05c0,17.23,0,33.63,0,48.47l.05-.05c-43.71.03-73.88.05-74.3.05.41,0,30.58.02,74.3.05h.05s0-.05,0-.05c0-14.84,0-31.24,0-48.47v-.05s-.05,0-.05,0h0c-28.06,0-53.92,0-74.29.01h-.04s0,.04,0,.04c.02,29.58.04,48.15.04,48.47Z" fill="#daebf9"/>
    <path d="m86.83,23.97s.02.02.07.06c.06.04.13.09.21.15.19.13.46.32.79.55.67.46,1.61,1.08,2.66,1.75,1.05.67,2,1.26,2.7,1.68.35.21.63.38.83.49.09.05.17.09.23.13.05.03.08.04.08.04s-.02-.02-.07-.06c-.06-.04-.13-.09-.22-.15-.21-.13-.48-.31-.81-.52-.7-.45-1.64-1.05-2.68-1.71-1.04-.67-1.98-1.27-2.67-1.72-.33-.21-.61-.39-.81-.52-.09-.05-.16-.1-.22-.14-.05-.03-.08-.05-.08-.04Z" fill="#fafafa"/>
    <path d="m90.12,24.84s.02.02.07.06c.06.04.13.09.21.15.19.13.46.32.79.55.67.46,1.61,1.08,2.66,1.75,1.05.67,2,1.26,2.7,1.68.35.21.63.38.83.49.09.05.17.09.23.13.05.03.08.04.08.04s-.02-.02-.07-.06c-.06-.04-.13-.09-.22-.15-.2-.13-.48-.31-.81-.52-.7-.45-1.64-1.05-2.68-1.71-1.04-.67-1.98-1.27-2.67-1.72-.33-.21-.61-.39-.81-.52-.09-.05-.16-.1-.22-.14-.05-.03-.08-.05-.08-.04Z" fill="#fafafa"/>
    <path d="m106.37,30.46s.03-.06.06-.17c.03-.11.07-.27.12-.47.09-.4.21-.97.2-1.6,0-.64-.17-1.21-.37-1.57-.1-.18-.2-.32-.27-.41-.08-.09-.12-.13-.13-.13-.02.01.16.2.34.57.18.36.33.92.33,1.54,0,.62-.1,1.18-.17,1.59-.08.4-.12.65-.11.66Z" fill="#fafafa"/>
    <path d="m114.22,44.14s.01-.08.01-.22c0-.14,0-.34-.01-.59-.02-.5-.05-1.18-.11-1.93-.06-.75-.13-1.44-.19-1.93-.03-.25-.06-.44-.08-.58-.02-.14-.04-.21-.04-.21s0,.08,0,.22c.01.16.03.35.05.58.04.52.1,1.19.16,1.93.05.74.1,1.41.14,1.93.02.23.03.43.04.59.01.14.02.21.03.21Z" fill="#fafafa"/>
    <path d="m93.08,47.88s.37.07.95.26c.29.09.62.23.99.4.36.18.74.4,1.11.67.37.28.7.57.98.86.27.29.5.57.68.82.35.5.51.84.53.83,0,0-.03-.09-.11-.24-.04-.08-.08-.17-.15-.27-.06-.1-.13-.23-.22-.35-.17-.26-.39-.54-.67-.84-.28-.29-.61-.6-.98-.88-.38-.28-.77-.5-1.13-.68-.37-.17-.71-.3-1-.38-.15-.05-.28-.07-.4-.1-.12-.03-.22-.05-.31-.06-.17-.03-.26-.04-.26-.03Z" fill="#fafafa"/>
    <g>
      <g>
        <circle cx="18.63" cy="60.75" r="9.25" transform="translate(-42.82 76.94) rotate(-87.71)" fill="#0e344c"/>
        <path d="m27.87,60.59s0,.02,0,.02c.07,5.11-4.01,9.31-9.11,9.38-5.11.07-9.31-4.01-9.38-9.11,0,0,0-.02,0-.02l18.49-.27Z" fill="#0e344c"/>
        <path d="m25.12,60.66c.05,3.59-2.81,6.53-6.4,6.59-3.59.05-6.53-2.81-6.59-6.4-.05-3.59,2.81-6.53,6.4-6.59,3.59-.05,6.53,2.81,6.59,6.4Z" fill="#fafafa"/>
        <path d="m18.53,54.26c3.59-.05,6.53,2.81,6.59,6.4l-12.99.19c-.05-3.59,2.81-6.53,6.4-6.59Z" fill="#e0e0e0"/>
        <path d="m22.58,60.69c.03,2.18-1.71,3.98-3.9,4.01-2.18.03-3.98-1.71-4.01-3.9-.03-2.18,1.71-3.98,3.9-4.01,2.18-.03,3.98,1.71,4.01,3.9Z" fill="#0e344c"/>
      </g>
      <path d="m30.78,63.28s1.41-13.12-12.19-13.12c-12.54,0-12.26,11.28-12.15,13.03h1.97s-1-11.12,10.18-11.12,10.21,11.35,10.21,11.35c0,0,.83-.04,1.98-.14Z" fill="#144c75"/>
      <path d="m23.5,51.52s.04.02.11.04c.07.02.18.05.31.1.27.08.65.22,1.1.43.91.41,2.1,1.18,3.08,2.35.99,1.17,1.53,2.48,1.78,3.44.13.48.2.88.23,1.16.02.14.03.25.04.32,0,.07.02.11.02.11,0,0,0-.04,0-.11,0-.07,0-.18-.02-.32-.02-.28-.08-.69-.2-1.18-.23-.98-.78-2.3-1.77-3.49-1-1.19-2.21-1.95-3.13-2.35-.46-.2-.85-.33-1.12-.4-.14-.04-.24-.06-.32-.08-.07-.02-.11-.02-.11-.02Z" fill="#fafafa"/>
    </g>
    <g>
      <polygon points="70.24 34.2 6.65 45.68 7.93 25.32 71.53 13.83 70.24 34.2" fill="#daebf9"/>
      <polygon points="62.59 19.15 14.94 27.75 16.12 13.66 63.76 5.06 62.59 19.15" fill="#1d70b7"/>
      <text transform="translate(17.33 22.85) rotate(-10.24) scale(.97) skewX(-15)" fill="#fff" font-family="Montserrat-Medium, Montserrat" font-size="8.56" font-weight="500"><tspan x="0" y="0">Deli</tspan><tspan x="17.08" y="0" letter-spacing="-.02em">v</tspan><tspan x="21.73" y="0">e</tspan><tspan x="26.97" y="0" letter-spacing=".02em">r</tspan><tspan x="30.61" y="0">y in</tspan></text>
      <text transform="translate(10.25 40.97) rotate(-10.24) scale(.97) skewX(-15)" fill="#1d70b7" font-family="Montserrat-Bold, Montserrat" font-size="15.56" font-weight="700"><tspan x="0" y="0">DHA</tspan><tspan x="37.34" y="0" letter-spacing="-.03em">K</tspan><tspan x="48.38" y="0">A</tspan></text>
      <polygon points="64.45 11.71 73.03 10.44 72.77 9.51 64.45 11.71" fill="#fafafa"/>
      <polygon points="2.96 22.25 12.72 21.2 12.47 20.15 2.96 22.25" fill="#fafafa"/>
      <polygon points="33.18 42.86 47.23 41.5 46.89 39.98 33.18 42.86" fill="#fafafa"/>
    </g>
  </g>
</svg>