<?xml version="1.0" encoding="utf-8"?>
<!-- Generator: Adobe Illustrator 25.4.1, SVG Export Plug-In . SVG Version: 6.00 Build 0)  -->
<svg version="1.1" id="Layer_1" xmlns="http://www.w3.org/2000/svg" xmlns:xlink="http://www.w3.org/1999/xlink" x="0px" y="0px"
	 viewBox="0 0 1566.7 305.3" style="enable-background:new 0 0 1566.7 305.3;" xml:space="preserve">
<style type="text/css">
	.st0{fill:#B73225;}
	.st1{fill:#E7422C;}
	.st2{fill:#FFFFFF;}
</style>
<path class="st0" d="M20.2,5.6C15.8,7.9,9,11.6,4.3,19.8c-2.6,4.6-4.1,9.8-4.3,15c0.2,5.3,1.7,10.4,4.3,15C9,58,15.8,61.8,20.2,64.1
	c9.1,4.6,19.3,6.5,29.4,5.2v-69C39.5-0.9,29.3,0.9,20.2,5.6z"/>
<path class="st1" d="M1566.7,69.3H49.6c-10.1,1.2-20.3-0.6-29.4-5.2C15.8,61.8,9,58,4.3,49.9c-2.6-4.6-4.1-9.7-4.3-15v235.6
	c0.2,5.3,1.7,10.4,4.3,15c4.7,8.1,11.5,11.9,15.9,14.2c8.3,4.3,17.7,6.2,27.1,5.4v0.1h1519.4l-101.1-118L1566.7,69.3z"/>
<path class="st2" d="M329.2,108.5v157.6h-36.5v-64.6h-71.6v64.6h-36.5V108.5h36.5v62.1h71.6v-62.1H329.2z"/>
<path class="st2" d="M398.6,258.2c-12.8-6.7-23.4-16.8-30.8-29.1c-7.4-12.4-11.1-26.3-11.1-41.8s3.7-29.4,11.1-41.8
	c7.4-12.4,18.1-22.4,30.8-29.1c13.1-7.1,27.9-10.6,44.2-10.6s31.1,3.5,44.2,10.6c12.7,6.7,23.4,16.8,30.8,29.1
	c7.5,12.4,11.3,26.3,11.3,41.8s-3.8,29.4-11.3,41.8c-7.5,12.3-18.1,22.4-30.8,29.1c-13.1,7.1-27.8,10.6-44.2,10.6
	C426.5,268.8,411.7,265.3,398.6,258.2z M468.1,231.3c7.4-4.2,13.5-10.4,17.7-17.9c4.3-7.7,6.4-16.4,6.4-26.1
	c0-9.8-2.1-18.5-6.4-26.1c-4.1-7.5-10.2-13.7-17.7-17.9c-15.7-8.5-34.7-8.5-50.4,0c-7.4,4.2-13.6,10.4-17.7,17.9
	c-4.3,7.7-6.4,16.4-6.4,26.1c0,9.7,2.1,18.5,6.4,26.1c4.1,7.5,10.2,13.7,17.7,17.9C433.4,239.9,452.4,239.9,468.1,231.3L468.1,231.3
	z"/>
<path class="st2" d="M587,138.2h-50.5v-29.7h137.3v29.7h-50.4v127.9H587V138.2z"/>
<path class="st2" d="M757.1,108.5h71.6c17.1,0,32.2,3.3,45.4,9.8c13.1,6.5,23.3,15.7,30.6,27.6c7.3,11.9,10.9,25.7,10.9,41.4
	c0,15.7-3.6,29.6-10.9,41.4c-7.3,11.9-17.5,21.1-30.6,27.6c-13.1,6.5-28.2,9.8-45.4,9.8h-71.6V108.5z M826.9,236.2
	c15.8,0,28.3-4.4,37.7-13.2c9.4-8.8,14.1-20.7,14.1-35.7c0-15-4.7-26.9-14.1-35.7c-9.4-8.8-21.9-13.2-37.7-13.2h-33.3v97.7H826.9z"
	/>
<path class="st2" d="M1065.1,236.8v29.3h-122V108.5h119.1v29.3h-82.8V172h73.2v28.4h-73.2v36.5L1065.1,236.8z"/>
<path class="st2" d="M1197.9,232.3h-73.2l-14,33.8h-37.4l70.2-157.6h36l70.5,157.6h-38.3L1197.9,232.3z M1186.4,204.6l-25-60.3
	l-25,60.3H1186.4z"/>
<path class="st2" d="M1266.5,108.5h36.5v127.9h79v29.7h-115.5V108.5z"/>
</svg>
