<?xml version="1.0" encoding="utf-8"?>
<!-- Generator: Adobe Illustrator 27.6.1, SVG Export Plug-In . SVG Version: 6.00 Build 0)  -->
<svg version="1.1" id="Layer_1" xmlns="http://www.w3.org/2000/svg" xmlns:xlink="http://www.w3.org/1999/xlink" x="0px" y="0px"
	 width="3409.9px" height="2208px" viewBox="0 0 3409.9 2208" enable-background="new 0 0 3409.9 2208" xml:space="preserve">
<g>
	<polygon fill="#E7412B" points="1832.8,2208 1972.1,2208 1972.1,2039.3 2188.6,2039.3 2188.6,1931.7 1972.1,1931.7 1972.1,1824.1 
		2218.1,1824.1 2218.1,1715.9 1832.8,1715.9 	"/>
	<path fill="#E7412B" d="M2831.5,1943.3c-16.6-10.5-34.8-19-54.5-25.3c-19.7-6.3-39.5-11.6-59.4-15.8c-19.9-4.2-38.1-8.3-54.5-12.3
		c-16.4-4-29.8-9.1-40.1-15.5c-10.3-6.3-15.5-15.1-15.5-26.4c0-7.5,2.6-14.5,7.7-21.1c5.2-6.6,13.6-12,25.3-16.2
		c11.7-4.2,27.2-6.3,46.4-6.3c21.6,0,43.8,3.1,66.8,9.1c23,6.1,46.2,15.7,69.6,28.8l42.2-102.6c-23.9-14.5-51.4-25.4-82.6-32.7
		c-31.2-7.3-62.9-10.9-95.3-10.9c-48.3,0-88.6,7.3-120.9,21.8c-32.3,14.5-56.5,33.7-72.4,57.7c-15.9,23.9-23.9,50.4-23.9,79.4
		c0,26.3,5,48,15.1,65.4c10.1,17.3,23.3,31.4,39.7,42.2c16.4,10.8,34.7,19.5,54.8,26c20.1,6.6,40,11.8,59.4,15.8
		c19.4,4,37.5,8.2,54.1,12.7c16.6,4.5,30.1,9.8,40.4,16.2c10.3,6.3,15.5,14.9,15.5,25.7c0,8.4-2.7,15.7-8.1,21.8
		c-5.4,6.1-13.8,10.8-25.3,14.1c-11.5,3.3-27.1,4.9-46.8,4.9c-28.6,0-57.3-4.6-86.1-13.7c-28.8-9.1-54.3-20.7-76.3-34.8l-45.7,103.3
		c23,15.5,53.1,28.2,90.3,38.3c37.3,10.1,76.3,15.1,117.1,15.1c48.7,0,89.3-7.3,121.6-21.8c32.3-14.5,56.6-33.9,72.8-58
		c16.2-24.1,24.3-50.5,24.3-79.1c0-25.8-5.2-47.2-15.5-64.3C2861.7,1967.7,2848.2,1953.8,2831.5,1943.3z"/>
	<polygon fill="#E7412B" points="3270.7,1900.8 3081.6,1900.8 3081.6,1715.9 2942.4,1715.9 2942.4,2208 3081.6,2208 3081.6,2016.1 
		3270.7,2016.1 3270.7,2208 3409.9,2208 3409.9,1715.9 3270.7,1715.9 	"/>
	<g>
		<g>
			<g>
				<polygon fill="#575756" points="1889.6,469.6 1732.8,469.6 1703.3,611.7 1860.2,611.7 				"/>
				<polygon fill="#575756" points="1686.9,690.4 1565.6,1270.6 1722.4,1270.6 1843.6,690.4 				"/>
			</g>
			<path fill="#575756" d="M2851.8,685c-35,0-67.8,6.2-98.3,18.3c-30.6,12.2-63.6,32.2-98.9,59.9l60-285.2h-156.8l-167.7,801H2547
				l48.1-230c14.9-71.4,26.9-116.7,36.1-136c16.3-35,40.2-64.5,71.5-88.5c24.1-18.2,49.2-27.3,75.4-27.3c20.7,0,37.1,5.7,49.1,17.5
				c12.1,11.6,18.1,27.1,18.1,46.4c0,10.6-3.8,34.7-11.4,72.2l-72.7,345.8h156.7l71.1-339.3c10.1-48.8,15.3-84.9,15.3-108.2
				c0-43.7-13.7-79-41-105.9C2935.9,698.6,2898.8,685,2851.8,685z"/>
			<path fill="#575756" d="M3283.1,815.1h96.2l24.1-116.3h-95.6l42.1-201.1l-179.8,108.2l-19.1,92.9h-76.5l-24,116.3h75.9
				l-48.6,233.4c-13.5,64.4-20.3,105.6-20.3,123.4c0,37.9,12.6,67.5,37.7,88.8c25.1,21.3,65.3,32,120.7,32c28.4,0,56.2-2.7,83.1-8.2
				l24.6-116.4c-27.7,2.6-45.2,3.8-52,3.8c-20,0-33.9-3.3-41.4-10.1c-7.7-6.7-11.5-16.1-11.5-28.1c0-6.2,4.6-31.3,13.7-75.5
				L3283.1,815.1z"/>
			<path fill="#575756" d="M2308,698.8l-21.9,102.7c-17.8-36.8-42.7-65.5-74.9-85.9c-32-20.4-67.3-30.6-106-30.6
				c-46.6,0-92.3,14.7-137.1,43.8c-44.8,29.1-79.6,72.1-104.4,129c-24.7,56.8-37.1,119.2-37.1,187.4c0,77.2,18.2,135.8,54.7,175.9
				c36.3,40,82.9,60,139.7,60c58,0,114.1-22.5,168.3-67.7l-1.1,5.5v11.4l-9.8,46.9c-16.8,80.7-30.9,129.7-42.7,147.1
				c-15.7,22.8-43,34.2-81.8,34.2c-27.8,0-48.3-6.2-61.7-18.5c-13.4-12.4-20.1-30.3-20.1-53.7c0-9.7,1.1-21.9,3-36.6l-140.1,15.1
				c-1.6,14.3-2.4,27.4-2.4,39.1c0,55.9,17.6,100,52.7,132.5c35.2,32.6,88,48.8,158.6,48.8c83.4,0,145.1-20.9,185.2-62.8
				c40.2-41.8,72.6-121.8,97.4-239.9l62.9-302.1l65.4-281.4H2308z M2231.4,1026.2c-30.3,105.3-109.8,174.8-177.8,155.4
				c-68-19.5-98.6-120.6-68.4-225.9c30-105.3,109.7-174.8,177.7-155.3C2230.9,819.8,2261.5,921,2231.4,1026.2z"/>
		</g>
		<g>
			<path fill="#E7422C" d="M1530.9,1408.9c10.9,16.1,4,29.2-15.5,29.2H1280c-19.5,0-44.4-13.2-55.5-29.2l-34.2-50.1l-37.5-55
				l-71.7-105c-1.3-1.9-2.7-4-4.2-6.2l-8.1-11.9c-2.6-3.7-5.1-7.4-7.7-11.2l-7.8-11.5c-2.9-4.1-5.5-8-8-11.6l-65.8-96.4l-38.9-56.9
				c33.6-21.2,68.3-42.1,102.7-62.6h210c55.7,0,101.2-45.5,101.2-101.1v-5.7c0-29.5-12.8-56.1-33-74.6c-18-16.5-41.9-26.5-68.1-26.5
				H898.7c-59.6-78.1-118.1-162.8-171-252.2c0,0-2-0.2-5.8-0.8h520.1c200.3,0,364.2,157.5,364.2,350c0,148.3-97.3,275.8-233.6,326.5
				c-0.3,0.7-0.6,1.4-0.9,2.1v0c-0.4,1-0.7,1.9-1,2.9c-1.9,6.5-1.9,13.5,0,20.1c0.2,0.8,0.5,1.7,0.8,2.5c1,2.6,2.3,5.2,3.9,7.6
				l77.7,113.8L1530.9,1408.9z"/>
			<g>
				<path fill="#E7422C" d="M148,1258c32.6,0,4.4,0,37,0c58.1,0,58.1-90.1,0-90.1c-32.6,0-4.4,0-37,0
					C89.9,1167.9,89.9,1258,148,1258z"/>
				<path fill="#E7422C" d="M630.3,807.8c-39.3,0-75.5,0-89.5,0c-58,0-58,90.1,0,90.1c7.2,0,20.3,0,36.7,0c4.1,0,8.4,0,12.7,0
					c58.1,0,58.1,90,0,90c-19.8,0-42.7,0-65.6,0c-45,0-89.2,0-105,0c-58.1,0-58.1,90.1,0,90.1c9.3,0,28.7,0,52.3,0
					c12.9,0,27,0,41.4,0c58.1,0,58.1,90,0,90c-17.2,0-54.8,0-94.1,0c-50.2,0-103.3,0-120.9,0c-58.1,0-58.1,90.1,0,90.1
					c11.3,0,37.5,0,68,0c25.9,0,55.1,0,81.1,0c58.1,0,58.1,90.1,0,90.1c-9.3,0-28.4,0-51.5,0c-9.7,0-41.5,0-82.4,0
					c-97.6,0-247,0-269.9,0c-58.1,0-58.1,90,0,90c19.1,0,125.6,0,217.1,0l-0.5,1h827.1L660.1,807.8
					C650.2,807.8,640.1,807.8,630.3,807.8z"/>
			</g>
			<path fill="#575756" d="M1718,1486c-204.5,0-300.7,0-505.1,0c-118.6-173.6-237.1-347.2-355.6-520.6
				c-83.8-122.8-167.7-245.6-251.6-368.4c-26.5-38.8-53-77.6-79.5-116.4c-14.2-20.8-30.5-53.7-56.1-60.7
				c-19.8-5.4-44.3-1.8-64.4-1.8c-41.2,0-82.3,0-123.6,0c-61.3,0-24.2,0-85.4,0c-66.7,0-66.7,103.4,0,103.4c110.4,0,122,0,232.3,0
				c118.5,173.6,236.9,347,355.4,520.6c84,122.8,167.7,245.7,251.7,368.5c26.5,38.8,53,77.6,79.4,116.3
				c14.3,20.8,30.6,53.7,56.2,60.8c31.2,8.6,71.4,1.9,103,1.9c1.7,0,3.5,0,5.2,0c0-0.7-0.1-1.3-0.1-1.8c0,37.6,30.5,68,68,68
				c37.6,0,68-30.4,68-68c0,0.6,0,1.2,0,1.8c26.7,0,53.5,0,80.4,0c5.9,0,11.6,0,17,0c0-0.7-0.1-1.3-0.1-1.8c0,37.6,30.5,68,68.1,68
				c37.5,0,67.9-30.4,67.9-68c0,0.6,0,1.2,0,1.8c18.1,0,39.7,0,68.9,0C1784.8,1589.5,1784.8,1486,1718,1486z"/>
		</g>
		<linearGradient id="SVGID_1_" gradientUnits="userSpaceOnUse" x1="1094.0608" y1="409.8816" x2="848.53" y2="761.6519">
			<stop  offset="0" style="stop-color:#35A8E0"/>
			<stop  offset="0.5321" style="stop-color:#4071B6"/>
			<stop  offset="1" style="stop-color:#484595"/>
		</linearGradient>
		<path fill="url(#SVGID_1_)" d="M1371.5,673.3l-0.7,477.8l0,20.1l-0.1,53.1c0,0-135.4-112.5-298.9-293.7c-3.3-3.6-6.6-7.3-9.9-11
			c-52.9-59.1-108.5-125.3-163.2-197c-59.6-78.1-118.1-162.8-171-252.2c0,0-2-0.2-5.8-0.8c-30.8-4.8-178.7-32.3-292.2-133.5
			c0,0,129,17.5,259.5-23.4c0,0-44.3-184.6-154.2-312.7c0,0,230.9,144.8,255.5,265.2c0,0,235.4,29.9,404.4,167.3
			c15.8,12.8,30.6,25.1,44.5,37.1C1323.7,542.8,1371.6,604,1371.5,673.3z"/>
		
			<linearGradient id="SVGID_00000007394565533194509000000014547558952605358526_" gradientUnits="userSpaceOnUse" x1="963.2217" y1="860.9367" x2="1155.6763" y2="1267.6328">
			<stop  offset="0" style="stop-color:#2D2E82"/>
			<stop  offset="0.1106" style="stop-color:#2B3789"/>
			<stop  offset="0.698" style="stop-color:#2160AA"/>
			<stop  offset="1" style="stop-color:#1D70B7"/>
		</linearGradient>
		<path fill="url(#SVGID_00000007394565533194509000000014547558952605358526_)" d="M1371.8,1148.2L1371.8,1148.2
			c-0.1,9.1-0.1,17.7-0.2,25.5c-0.2,24.3-0.5,42.1-0.9,50.6c-2.4,51-86.5,107.4-180.3,134.4c-12.1,3.5-24.5,6.5-36.8,8.9
			c-5.9,1.7-11.9,3.5-18,5.1c-25.6,6.9-53,12.9-81.2,17.7c-9.5,1.6-19.1,3.1-28.7,4.4c-152.4,20.9-318.6,4.7-349.4-92.1
			c-26-71,37.5-146.6,135.3-221.3c7.3-5.6,14.7-11.1,22.4-16.7c19.7-14.3,40.5-28.6,62.1-42.8c14.6-9.6,29.5-19.2,44.7-28.7
			c33.6-21.2,68.3-42.1,102.7-62.6c6.2-3.7,12.3-7.4,18.5-11c103.7-61.8,202.6-119.8,259.7-170.4c31.2-27.7,49.9-53.2,49.9-75.9
			C1371.5,673.3,1372.7,993.7,1371.8,1148.2z"/>
		<path fill="#1D1D1B" d="M839.9,1252.9c-17.4,4.9-35.5-5.2-40.4-22.6c-4.9-17.4,5.2-35.5,22.6-40.4c17.4-4.9,35.5,5.2,40.4,22.6
			C867.5,1230,857.3,1248,839.9,1252.9z"/>
	</g>
	<g>
		<g>
			<g>
				<polygon fill="#575756" points="237.4,1900.1 263.4,1900.1 263.4,1965.8 287.3,1965.8 287.3,1900.1 313.2,1900.1 313.2,1881.2 
					237.4,1881.2 				"/>
				<path fill="#575756" d="M377.6,1902.2c-4.1-2.1-8.7-3.1-13.8-3.1c-5.5,0-10.4,1.2-14.8,3.7c-1.8,1-3.5,2.3-5,3.7v-30.3h-23v89.7
					h23v-31.6c0-3.7,0.6-6.7,1.7-8.9c1.1-2.3,2.7-3.9,4.7-5c2-1.1,4.3-1.6,6.8-1.6c3.2,0,5.8,1.1,7.7,3.2c1.9,2.1,2.8,5.5,2.8,10.2
					v33.7h23.1v-37.5c0-6.8-1.2-12.3-3.6-16.6C384.9,1907.5,381.7,1904.3,377.6,1902.2z"/>
				<path fill="#575756" d="M455.6,1903.1c-5.3-2.7-11.1-4.1-17.6-4.1c-6.9,0-13.1,1.5-18.6,4.4c-5.4,2.9-9.7,6.9-12.8,12
					c-3.1,5.1-4.7,11-4.7,17.6c0,6.5,1.6,12.2,4.8,17.4c3.2,5.1,7.7,9.2,13.4,12.1c5.8,2.9,12.6,4.4,20.4,4.4
					c6.2,0,11.6-0.9,16.2-2.7c4.6-1.8,8.4-4.4,11.5-7.8l-12-12.7c-2.3,1.9-4.5,3.4-6.8,4.3c-2.3,0.9-5,1.4-8.3,1.4
					c-3.5,0-6.5-0.6-8.9-1.9c-2.5-1.2-4.4-3-5.7-5.4c-0.6-1-1-2.1-1.3-3.3h47.6c0.1-0.9,0.2-1.9,0.2-2.9c0.1-1,0.1-2,0.1-2.8
					c0-7.3-1.6-13.4-4.8-18.4C465.1,1909.7,460.9,1905.8,455.6,1903.1z M430.9,1917.3c2.1-1.2,4.6-1.8,7.4-1.8
					c2.7,0,5.1,0.6,7.1,1.8c2,1.2,3.6,2.9,4.8,5.1c0.7,1.3,1.2,2.7,1.4,4.3h-26.8c0.3-1.6,0.7-3,1.3-4.3
					C427.2,1920.2,428.8,1918.5,430.9,1917.3z"/>
				<path fill="#575756" d="M591.8,1929.1c3-4.6,4.5-10.2,4.5-16.7c0-6.4-1.5-11.9-4.5-16.6c-3-4.7-7.4-8.3-13-10.8
					c-5.6-2.5-12.3-3.7-20.1-3.7h-38.6v84.7h23.9v-22.5h13l15.3,22.5H598l-18.3-26.6C584.9,1936.8,589,1933.4,591.8,1929.1z
					 M568.5,1903.4c2.5,2.2,3.7,5.2,3.7,9c0,4-1.3,7-3.7,9.2c-2.5,2.2-6.2,3.3-11.2,3.3h-13.2V1900h13.2
					C562.3,1900,566,1901.1,568.5,1903.4z"/>
				<rect x="608.4" y="1900.1" fill="#575756" width="23" height="65.7"/>
				<path fill="#575756" d="M630.1,1872c-2.6-2.2-6-3.3-10.2-3.3c-4.3,0-7.7,1.1-10.2,3.4c-2.5,2.3-3.8,5.2-3.8,8.6
					c0,3.5,1.3,6.4,3.8,8.7c2.5,2.3,5.9,3.5,10.2,3.5c4.3,0,7.7-1.2,10.2-3.6c2.5-2.4,3.8-5.4,3.8-9.1
					C634,1876.9,632.7,1874.1,630.1,1872z"/>
				<path fill="#575756" d="M694.9,1908.1c-1.7-2.4-3.8-4.3-6.3-5.7c-4-2.3-8.7-3.4-14.4-3.4c-5.7,0-11,1.3-15.9,3.9
					c-4.9,2.6-8.8,6.2-11.7,11c-2.9,4.8-4.4,10.4-4.4,16.8c0,6.5,1.5,12,4.4,16.8c2.9,4.7,6.9,8.4,11.7,11
					c4.9,2.6,10.2,3.9,15.9,3.9c5.6,0,10.4-1.1,14.4-3.4c1.9-1.1,3.6-2.5,5.1-4.2v2c0,5.2-1.4,9.1-4.1,11.8
					c-2.7,2.7-7.1,4.1-13.2,4.1c-4,0-8-0.6-12-1.9c-4.1-1.3-7.5-2.9-10.2-5l-8.3,16c3.9,2.8,8.8,5,14.5,6.4c5.7,1.5,11.7,2.2,18,2.2
					c12.3,0,21.7-3,28.4-8.9c6.7-6,10-15.2,10-27.6v-53.7h-21.8V1908.1z M692.2,1937.8c-1.3,2-2.9,3.6-5,4.7
					c-2.1,1.1-4.6,1.7-7.4,1.7c-2.7,0-5.2-0.6-7.3-1.7c-2.1-1.1-3.9-2.7-5.1-4.7c-1.3-2-1.9-4.4-1.9-7c0-2.7,0.6-5,1.9-7
					c1.3-2,3-3.6,5.1-4.7c2.1-1.1,4.6-1.6,7.3-1.6c2.8,0,5.3,0.5,7.4,1.6c2.1,1.1,3.8,2.6,5,4.7c1.2,2,1.9,4.4,1.9,7
					C694.1,1933.4,693.4,1935.7,692.2,1937.8z"/>
				<path fill="#575756" d="M788,1902.2c-4.1-2.1-8.7-3.1-13.8-3.1c-5.5,0-10.4,1.2-14.8,3.7c-1.8,1-3.5,2.3-5,3.7v-30.3h-23v89.7
					h23v-31.6c0-3.7,0.6-6.7,1.7-8.9c1.1-2.3,2.7-3.9,4.7-5c2-1.1,4.3-1.6,6.8-1.6c3.2,0,5.8,1.1,7.7,3.2c1.9,2.1,2.8,5.5,2.8,10.2
					v33.7h23.1v-37.5c0-6.8-1.2-12.3-3.6-16.6C795.4,1907.5,792.1,1904.3,788,1902.2z"/>
				<path fill="#575756" d="M848.3,1949.1c-2.1,0-3.8-0.6-5-1.9c-1.3-1.3-1.9-3.2-1.9-5.7v-21.6h15v-17.2h-15v-17.2h-23v17.2h-9.6
					v17.2h9.6v22c0,8.4,2.3,14.7,7,18.8c4.7,4.2,11.2,6.2,19.6,6.2c3.1,0,6-0.3,8.8-0.9c2.8-0.6,5.2-1.6,7.3-3l-5.8-16
					C853.3,1948.4,850.9,1949.1,848.3,1949.1z"/>
				<path fill="#575756" d="M932.5,1905.9c2.1-2.1,4.5-3.8,7.4-4.9c2.9-1.1,6.1-1.7,9.6-1.7c3.9,0,7.6,0.8,10.9,2.5
					c3.3,1.7,6.3,4.2,9.1,7.4l15.2-13.8c-4.1-5.2-9.3-9.2-15.4-11.9c-6.2-2.7-13.2-4.1-21-4.1c-6.7,0-12.9,1.1-18.5,3.2
					c-5.6,2.1-10.6,5.2-14.8,9.1c-4.2,3.9-7.5,8.6-9.8,14c-2.3,5.4-3.5,11.3-3.5,17.8c0,6.5,1.2,12.4,3.5,17.8
					c2.3,5.4,5.6,10.1,9.8,14c4.2,3.9,9.1,6.9,14.8,9.1c5.6,2.1,11.8,3.2,18.5,3.2c7.8,0,14.8-1.4,21-4.1c6.2-2.7,11.3-6.7,15.4-12
					l-15.2-13.8c-2.7,3.3-5.8,5.8-9.1,7.5c-3.3,1.7-6.9,2.5-10.9,2.5c-3.5,0-6.7-0.6-9.6-1.7c-2.9-1.1-5.4-2.8-7.4-4.9
					c-2.1-2.1-3.7-4.7-4.8-7.7c-1.2-3-1.8-6.3-1.8-9.9c0-3.6,0.6-6.9,1.8-9.9C928.8,1910.6,930.4,1908,932.5,1905.9z"/>
				<path fill="#575756" d="M1050.7,1902.2c-4.1-2.1-8.7-3.1-13.8-3.1c-5.5,0-10.4,1.2-14.8,3.7c-1.8,1-3.5,2.3-5,3.7v-30.3h-23
					v89.7h23v-31.6c0-3.7,0.6-6.7,1.7-8.9c1.1-2.3,2.7-3.9,4.7-5c2-1.1,4.3-1.6,6.8-1.6c3.2,0,5.8,1.1,7.7,3.2
					c1.9,2.1,2.8,5.5,2.8,10.2v33.7h23.1v-37.5c0-6.8-1.2-12.3-3.6-16.6C1058.1,1907.5,1054.8,1904.3,1050.7,1902.2z"/>
				<path fill="#575756" d="M1131.3,1903.4c-5.6-2.9-12-4.4-19.2-4.4c-7.2,0-13.5,1.5-19.1,4.4c-5.6,2.9-9.9,6.9-13.1,12
					c-3.2,5.1-4.8,11-4.8,17.6c0,6.5,1.6,12.4,4.8,17.5c3.2,5.1,7.6,9.1,13.1,12c5.6,2.9,11.9,4.4,19.1,4.4c7.2,0,13.6-1.5,19.2-4.4
					c5.6-2.9,10-6.9,13.2-12c3.2-5.1,4.8-10.9,4.8-17.5c0-6.6-1.6-12.5-4.8-17.6C1141.3,1910.3,1136.9,1906.3,1131.3,1903.4z
					 M1124.1,1941.4c-1.3,2.4-2.9,4.2-5,5.4c-2.1,1.2-4.4,1.8-7,1.8c-2.6,0-4.9-0.6-7-1.8c-2.1-1.2-3.7-3-5-5.4
					c-1.3-2.4-1.9-5.2-1.9-8.5c0-3.4,0.6-6.2,1.9-8.5c1.2-2.3,2.9-4,5-5.2c2.1-1.2,4.4-1.8,7-1.8c2.6,0,4.9,0.6,7,1.8
					c2.1,1.2,3.7,2.9,5,5.2c1.2,2.3,1.9,5.1,1.9,8.5C1125.9,1936.2,1125.3,1939.1,1124.1,1941.4z"/>
				<rect x="1159.8" y="1900.1" fill="#575756" width="23" height="65.7"/>
				<path fill="#575756" d="M1181.4,1872c-2.6-2.2-6-3.3-10.2-3.3c-4.3,0-7.7,1.1-10.2,3.4c-2.5,2.3-3.8,5.2-3.8,8.6
					c0,3.5,1.3,6.4,3.8,8.7c2.5,2.3,5.9,3.5,10.2,3.5c4.3,0,7.7-1.2,10.2-3.6c2.5-2.4,3.8-5.4,3.8-9.1
					C1185.3,1876.9,1184,1874.1,1181.4,1872z"/>
				<path fill="#575756" d="M1223.8,1919.3c2.1-1.2,4.5-1.8,7.2-1.8s5.1,0.7,7.4,2.1c2.3,1.4,4.2,3.6,5.7,6.7l17.8-9.2
					c-2.3-5.6-6.1-10.1-11.5-13.2c-5.4-3.2-11.8-4.8-19.2-4.8c-7.3,0-13.8,1.5-19.5,4.4c-5.6,2.9-10.1,7-13.3,12
					c-3.2,5.1-4.8,10.9-4.8,17.5c0,6.5,1.6,12.4,4.8,17.5c3.2,5.1,7.7,9.1,13.3,12c5.6,2.9,12.1,4.4,19.5,4.4
					c7.4,0,13.8-1.6,19.2-4.8c5.4-3.2,9.2-7.6,11.5-13.2l-17.8-9.1c-1.5,3.1-3.4,5.3-5.7,6.7c-2.3,1.4-4.7,2.1-7.4,2.1
					s-5.1-0.6-7.2-1.8c-2.1-1.2-3.9-3-5.1-5.3c-1.3-2.3-1.9-5.2-1.9-8.5c0-3.5,0.6-6.3,1.9-8.6
					C1220,1922.2,1221.7,1920.5,1223.8,1919.3z"/>
				<path fill="#575756" d="M1319.4,1903.1c-5.3-2.7-11.1-4.1-17.6-4.1c-6.9,0-13.1,1.5-18.6,4.4c-5.4,2.9-9.7,6.9-12.8,12
					c-3.1,5.1-4.7,11-4.7,17.6c0,6.5,1.6,12.2,4.8,17.4c3.2,5.1,7.7,9.2,13.4,12.1c5.8,2.9,12.6,4.4,20.4,4.4
					c6.2,0,11.6-0.9,16.2-2.7s8.4-4.4,11.5-7.8l-12-12.7c-2.3,1.9-4.5,3.4-6.8,4.3c-2.3,0.9-5,1.4-8.3,1.4c-3.5,0-6.5-0.6-8.9-1.9
					c-2.5-1.2-4.4-3-5.7-5.4c-0.6-1-1-2.1-1.3-3.3h47.6c0.1-0.9,0.2-1.9,0.2-2.9c0.1-1,0.1-2,0.1-2.8c0-7.3-1.6-13.4-4.8-18.4
					C1328.9,1909.7,1324.7,1905.8,1319.4,1903.1z M1294.6,1917.3c2.1-1.2,4.6-1.8,7.4-1.8c2.7,0,5.1,0.6,7.1,1.8
					c2,1.2,3.6,2.9,4.8,5.1c0.7,1.3,1.2,2.7,1.4,4.3h-26.8c0.3-1.6,0.7-3,1.3-4.3C1291,1920.2,1292.6,1918.5,1294.6,1917.3z"/>
			</g>
			<g>
				<path fill="#575756" d="M457.2,1998.5c-5.6-2.5-12.3-3.7-20.1-3.7h-38.6v84.7h23.9v-22.1h14.6c7.7,0,14.4-1.3,20.1-3.8
					c5.6-2.5,10-6.1,13-10.8c3-4.6,4.5-10.2,4.5-16.8c0-6.4-1.5-11.9-4.5-16.6C467.1,2004.6,462.8,2001,457.2,1998.5z M446.9,2035
					c-2.5,2.1-6.2,3.2-11.2,3.2h-13.2v-24.7h13.2c5,0,8.7,1.1,11.2,3.3c2.5,2.2,3.7,5.2,3.7,9C450.6,2029.9,449.4,2032.9,446.9,2035
					z"/>
				<path fill="#575756" d="M507.8,2021.7v-8h-22v65.7h23v-30.1c0-5.7,1.5-9.9,4.4-12.4c2.9-2.5,6.7-3.8,11.4-3.8
					c0.8,0,1.6,0,2.4,0.1c0.8,0,1.7,0.1,2.8,0.3v-20.8c-6.2,0-11.5,1.3-15.8,3.7C511.5,2017.8,509.5,2019.5,507.8,2021.7z"/>
				<path fill="#575756" d="M590.6,2017c-5.6-2.9-12-4.4-19.2-4.4c-7.2,0-13.5,1.5-19.1,4.4c-5.6,2.9-9.9,6.9-13.1,12
					c-3.2,5.1-4.8,11-4.8,17.6c0,6.5,1.6,12.4,4.8,17.5c3.2,5.1,7.6,9.1,13.1,12c5.6,2.9,11.9,4.4,19.1,4.4c7.2,0,13.6-1.5,19.2-4.4
					c5.6-2.9,10-6.9,13.2-12c3.2-5.1,4.8-10.9,4.8-17.5c0-6.6-1.6-12.5-4.8-17.6C600.6,2023.9,596.2,2019.9,590.6,2017z M583.4,2055
					c-1.3,2.4-2.9,4.2-5,5.4c-2.1,1.2-4.4,1.8-7,1.8c-2.6,0-4.9-0.6-7-1.8c-2.1-1.2-3.7-3-5-5.4c-1.3-2.4-1.9-5.2-1.9-8.5
					c0-3.4,0.6-6.2,1.9-8.5c1.2-2.3,2.9-4,5-5.2c2.1-1.2,4.4-1.8,7-1.8c2.6,0,4.9,0.6,7,1.8c2.1,1.2,3.7,2.9,5,5.2
					c1.2,2.3,1.9,5.1,1.9,8.5C585.2,2049.8,584.6,2052.6,583.4,2055z"/>
				<path fill="#575756" d="M651.6,2062.7c-2.1,0-3.8-0.6-5-1.9c-1.3-1.3-1.9-3.2-1.9-5.7v-21.6h15v-17.2h-15v-17.2h-23v17.2h-9.6
					v17.2h9.6v22c0,8.4,2.3,14.7,7,18.8c4.7,4.2,11.2,6.2,19.6,6.2c3.1,0,6-0.3,8.8-0.9s5.2-1.6,7.3-3l-5.8-16
					C656.6,2062,654.3,2062.7,651.6,2062.7z"/>
				<g>
					<path fill="#575756" d="M774.2,1985.5c-2.6-2.2-6-3.3-10.2-3.3c-4.3,0-7.7,1.1-10.2,3.4c-2.5,2.3-3.8,5.2-3.8,8.6
						c0,3.5,1.3,6.4,3.8,8.7c2.5,2.3,5.9,3.5,10.2,3.5c4.3,0,7.7-1.2,10.2-3.6c2.5-2.4,3.8-5.4,3.8-9.1
						C778.1,1990.5,776.8,1987.7,774.2,1985.5z"/>
					<rect x="752.6" y="2013.7" fill="#575756" width="23" height="65.7"/>
				</g>
				<path fill="#575756" d="M843.2,2015.8c-4.1-2.1-8.7-3.1-13.8-3.1c-5.5,0-10.4,1.2-14.8,3.7c-2.2,1.3-4.2,2.8-5.9,4.6v-7.2h-22
					v65.7h23v-31.6c0-3.7,0.6-6.7,1.7-8.9c1.1-2.3,2.7-3.9,4.7-5c2-1.1,4.3-1.6,6.8-1.6c3.2,0,5.8,1.1,7.7,3.2
					c1.9,2.1,2.8,5.5,2.8,10.2v33.7h23.1v-37.5c0-6.8-1.2-12.3-3.6-16.6C850.6,2021,847.3,2017.9,843.2,2015.8z"/>
				<path fill="#575756" d="M723.7,2016.7c-5.3-2.7-11.1-4.1-17.6-4.1c-6.9,0-13.1,1.5-18.6,4.4c-5.4,2.9-9.7,6.9-12.8,12
					c-3.1,5.1-4.7,11-4.7,17.6c0,6.5,1.6,12.2,4.8,17.4c3.2,5.1,7.7,9.2,13.4,12.1c5.8,2.9,12.6,4.4,20.4,4.4
					c6.2,0,11.6-0.9,16.2-2.7c4.6-1.8,8.4-4.4,11.5-7.8l-12-12.7c-2.3,1.9-4.5,3.4-6.8,4.3c-2.3,0.9-5,1.4-8.3,1.4
					c-3.5,0-6.5-0.6-9-1.9c-2.5-1.2-4.4-3-5.7-5.4c-0.6-1-1-2.1-1.3-3.3h47.6c0.1-0.9,0.2-1.9,0.2-2.9c0.1-1,0.1-2,0.1-2.8
					c0-7.3-1.6-13.4-4.8-18.4C733.2,2023.2,729,2019.4,723.7,2016.7z M699,2030.9c2.1-1.2,4.6-1.8,7.4-1.8c2.7,0,5.1,0.6,7.1,1.8
					c2,1.2,3.6,2.9,4.8,5.1c0.7,1.3,1.2,2.7,1.4,4.3h-26.8c0.3-1.6,0.7-3,1.3-4.3C695.3,2033.8,696.9,2032.1,699,2030.9z"/>
				<path fill="#575756" d="M933.8,2014.9c0-3,0.7-5.2,2.1-6.6c1.4-1.4,3.2-2.1,5.5-2.1c1.4,0,2.6,0.2,3.8,0.5
					c1.2,0.4,2.2,0.8,3.2,1.4l5.7-16.2c-1.9-1.1-4.2-2-7-2.5c-2.8-0.6-5.5-0.8-8.3-0.8c-8.7,0-15.4,2.4-20.2,7.1
					c-4.8,4.7-7.1,11.1-7.1,19v1.6H902v17.2h9.6v46h23v-46h15v-17.2h-15.7V2014.9z"/>
				<path fill="#575756" d="M1009.3,2017c-5.6-2.9-12-4.4-19.2-4.4c-7.2,0-13.5,1.5-19.1,4.4c-5.6,2.9-9.9,6.9-13.1,12
					c-3.2,5.1-4.8,11-4.8,17.6c0,6.5,1.6,12.4,4.8,17.5c3.2,5.1,7.6,9.1,13.1,12c5.6,2.9,11.9,4.4,19.1,4.4c7.2,0,13.6-1.5,19.2-4.4
					c5.6-2.9,10-6.9,13.2-12c3.2-5.1,4.8-10.9,4.8-17.5c0-6.6-1.6-12.5-4.8-17.6C1019.3,2023.9,1014.9,2019.9,1009.3,2017z
					 M1002.1,2055c-1.3,2.4-2.9,4.2-5,5.4c-2.1,1.2-4.4,1.8-7,1.8c-2.6,0-4.9-0.6-7-1.8c-2.1-1.2-3.7-3-5-5.4
					c-1.3-2.4-1.9-5.2-1.9-8.5c0-3.4,0.6-6.2,1.9-8.5c1.2-2.3,2.9-4,5-5.2c2.1-1.2,4.4-1.8,7-1.8c2.6,0,4.9,0.6,7,1.8
					c2.1,1.2,3.7,2.9,5,5.2c1.2,2.3,1.9,5.1,1.9,8.5C1003.9,2049.8,1003.3,2052.6,1002.1,2055z"/>
				<path fill="#575756" d="M1059.8,2021.7v-8h-22v65.7h23v-30.1c0-5.7,1.5-9.9,4.4-12.4c2.9-2.5,6.7-3.8,11.4-3.8
					c0.8,0,1.6,0,2.4,0.1c0.8,0,1.7,0.1,2.8,0.3v-20.8c-6.2,0-11.5,1.3-15.8,3.7C1063.5,2017.8,1061.5,2019.5,1059.8,2021.7z"/>
				<path fill="#575756" d="M1157.5,2053.8l-16.1-40.1h-23.6l28.1,66.5c-0.9,1.7-1.9,3-3,3.9c-1.4,1.1-3.4,1.7-6,1.7
					c-1.8,0-3.6-0.3-5.4-1c-1.8-0.7-3.4-1.6-4.8-2.7l-8.1,16c2.3,1.8,5.2,3.2,8.7,4.3c3.5,1.1,7,1.6,10.4,1.6
					c4.4,0,8.3-0.6,11.9-1.9c3.6-1.3,6.8-3.5,9.7-6.7c2.9-3.2,5.5-7.6,7.9-13.2l28.2-68.3h-21.8L1157.5,2053.8z"/>
				<path fill="#575756" d="M1251.8,2017c-5.6-2.9-12-4.4-19.2-4.4c-7.2,0-13.5,1.5-19.1,4.4c-5.6,2.9-9.9,6.9-13.1,12
					c-3.2,5.1-4.8,11-4.8,17.6c0,6.5,1.6,12.4,4.8,17.5c3.2,5.1,7.6,9.1,13.1,12c5.6,2.9,11.9,4.4,19.1,4.4c7.2,0,13.6-1.5,19.2-4.4
					c5.6-2.9,10-6.9,13.2-12c3.2-5.1,4.8-10.9,4.8-17.5c0-6.6-1.6-12.5-4.8-17.6C1261.8,2023.9,1257.4,2019.9,1251.8,2017z
					 M1244.5,2055c-1.3,2.4-2.9,4.2-5,5.4c-2.1,1.2-4.4,1.8-7,1.8c-2.6,0-4.9-0.6-7-1.8c-2.1-1.2-3.7-3-5-5.4
					c-1.3-2.4-1.9-5.2-1.9-8.5c0-3.4,0.6-6.2,1.9-8.5c1.2-2.3,2.9-4,5-5.2c2.1-1.2,4.4-1.8,7-1.8c2.6,0,4.9,0.6,7,1.8
					c2.1,1.2,3.7,2.9,5,5.2c1.2,2.3,1.9,5.1,1.9,8.5C1246.4,2049.8,1245.8,2052.6,1244.5,2055z"/>
				<path fill="#575756" d="M1326.1,2045.5c0,3.5-0.5,6.5-1.6,8.8c-1,2.3-2.5,4-4.4,5c-1.9,1-4,1.6-6.2,1.6c-3.5,0-6.1-1.1-8-3.3
					c-1.9-2.2-2.8-5.9-2.8-10.9v-32.9h-23v36.6c0,6.9,1.2,12.6,3.6,17.1c2.4,4.5,5.7,7.8,9.9,9.9c4.2,2.1,9,3.1,14.3,3.1
					c5,0,9.6-1.2,13.8-3.6c2.1-1.2,4-2.7,5.6-4.5v7h21.8v-65.7h-23V2045.5z"/>
				<path fill="#575756" d="M293.6,2015.9c-5.6-2.9-12-4.4-19.2-4.4c-7.2,0-13.5,1.5-19.1,4.4c-5.6,2.9-9.9,6.9-13.1,12
					c-3.2,5.1-4.8,11-4.8,17.6c0,6.5,1.6,12.4,4.8,17.5c3.2,5.1,7.6,9.1,13.1,12c5.6,2.9,11.9,4.4,19.1,4.4c7.2,0,13.6-1.5,19.2-4.4
					c5.6-2.9,10-6.9,13.2-12c3.2-5.1,4.8-10.9,4.8-17.5c0-6.6-1.6-12.5-4.8-17.6C303.6,2022.8,299.2,2018.8,293.6,2015.9z
					 M286.3,2053.9c-1.3,2.4-2.9,4.2-5,5.4c-2.1,1.2-4.4,1.8-7,1.8c-2.6,0-4.9-0.6-7-1.8c-2.1-1.2-3.7-3-5-5.4
					c-1.3-2.4-1.9-5.2-1.9-8.5c0-3.4,0.6-6.2,1.9-8.5c1.2-2.3,2.9-4,5-5.2c2.1-1.2,4.4-1.8,7-1.8c2.6,0,4.9,0.6,7,1.8
					c2.1,1.2,3.7,2.9,5,5.2c1.2,2.3,1.9,5.1,1.9,8.5C288.2,2048.7,287.6,2051.5,286.3,2053.9z"/>
				<path fill="#575756" d="M349.1,2008.3c1.4-1.4,3.2-2.1,5.5-2.1c1.4,0,2.6,0.2,3.8,0.5c1.2,0.4,2.2,0.8,3.2,1.4l5.7-16.2
					c-1.9-1.1-4.2-2-7-2.5c-2.8-0.6-5.5-0.8-8.3-0.8c-8.7,0-15.4,2.4-20.2,7.1c-4.8,4.7-7.1,11.1-7.1,19v1.6h-9.6v17.2h9.6v46h23
					v-46h15v-17.2H347v-1.3C347,2011.9,347.7,2009.7,349.1,2008.3z"/>
			</g>
		</g>
		<g>
			<path fill="#575756" d="M1497.5,1906.1c-19,0-35.1,6-48.2,18.1c-13.1,12.1-19.6,28.1-19.6,47.9c0,20.2,6.5,36.6,19.6,49.1
				c13.1,12.5,29.1,18.7,48.2,18.7c19,0,35.1-6.2,48.2-18.7c13.1-12.5,19.6-28.8,19.6-49.1c0-19.8-6.5-35.8-19.6-47.9
				C1532.6,1912.2,1516.5,1906.1,1497.5,1906.1z"/>
			<path fill="#575756" d="M89,1906.1c-19,0-35.1,6-48.2,18.1c-13.1,12.1-19.6,28.1-19.6,47.9c0,20.2,6.5,36.6,19.6,49.1
				C53.9,2033.7,70,2040,89,2040c19,0,35.1-6.2,48.2-18.7c13.1-12.5,19.6-28.8,19.6-49.1c0-19.8-6.5-35.8-19.6-47.9
				C124.1,1912.2,108,1906.1,89,1906.1z"/>
		</g>
	</g>
	<rect x="2276.6" y="1716" fill="#E7412B" width="141" height="492"/>
</g>
</svg>
