<svg xmlns="http://www.w3.org/2000/svg" xmlns:xlink="http://www.w3.org/1999/xlink" width="2627.61" height="1782.96" viewBox="0 0 2627.61 1782.96"><defs><linearGradient id="linear-gradient" x1="840.2" y1="314.29" x2="651.93" y2="584.02" gradientUnits="userSpaceOnUse"><stop offset="0" stop-color="#35a8e0"/><stop offset="0.53" stop-color="#4071b6"/><stop offset="1" stop-color="#484595"/></linearGradient><linearGradient id="linear-gradient-2" x1="739.88" y1="660.15" x2="887.45" y2="971.99" gradientUnits="userSpaceOnUse"><stop offset="0" stop-color="#2d2e82"/><stop offset="0.11" stop-color="#2b3789"/><stop offset="0.7" stop-color="#2160aa"/><stop offset="1" stop-color="#1d70b7"/></linearGradient></defs><g id="Layer_2" data-name="Layer 2"><g id="Layer_1-2" data-name="Layer 1"><path d="M1879.43,1155.31c-3,8.17-7.12,14.37-12.32,18.44s-10.66,6.17-16.42,6.17a18.27,18.27,0,0,1-14.06-6.26c-3.78-4.18-5.65-10.18-5.65-17.86a97,97,0,0,1,4.69-28.43c3.1-10.13,7.72-17.78,13.58-22.83s12.28-7.57,19.08-7.57c5.93,0,10.67,1.67,14.27,5.15s5.93,8.78,6.75,16.06l33.57-3.54c-1.16-13.15-6.34-23.66-15.48-31.74s-21.51-12-36.9-12a73.26,73.26,0,0,0-39.06,10.85,67.91,67.91,0,0,0-26.73,29.79,94.44,94.44,0,0,0-8.84,40.21c0,17.36,5,31,14.71,41s22.92,14.87,39.48,14.87c14.68,0,27.45-4,38.5-12s19.42-19.49,25.13-34.77Z" fill="#575756"/><path d="M2045.68,1080c-6.18-6.06-14.49-9.09-25.06-9.09a60,60,0,0,0-22.15,4,95.32,95.32,0,0,0-22.2,13.51l13.47-64.21H1954.5l-37.73,180.23H1952l10.83-51.77q5-24.07,8.09-30.57a54.12,54.12,0,0,1,16.13-19.94c5.39-4.09,11.08-6.14,17-6.14,4.64,0,8.28,1.32,11,3.93s4.08,6.1,4.08,10.46c0,2.37-.84,7.8-2.58,16.22l-16.34,77.81h35.33l15.94-76.34c2.27-11,3.45-19.09,3.45-24.31C2054.91,1094,2051.86,1086,2045.68,1080Z" fill="#575756"/><path d="M2178.63,1086.77c-10.84-10.6-25.8-15.87-45.11-15.87-22.18,0-40.15,7.18-53.73,21.56-13.74,14.35-20.49,33.65-20.49,57.82a62.26,62.26,0,0,0,6.94,29,48,48,0,0,0,21.32,20.87q14.28,7.38,32.67,7.4c22.77,0,40.82-7.74,54.34-23.13s20.31-33.64,20.31-54.82C2194.88,1111.68,2189.43,1097.42,2178.63,1086.77Zm-32.86,81.08c-6.46,8.28-14.58,12.42-24.28,12.42a25.09,25.09,0,0,1-19.2-8.25c-5.07-5.49-7.59-12.93-7.59-22.27,0-7.52,1.61-15.72,4.92-24.77s7.84-15.74,13.78-20.48a31.44,31.44,0,0,1,20.23-7.08c7.72,0,14,2.52,18.87,7.55s7.34,11.79,7.34,20.09C2159.84,1141.87,2155.19,1156.11,2145.77,1167.85Z" fill="#575756"/><polygon points="2264.9 1024.25 2229.6 1024.25 2222.98 1056.25 2258.31 1056.25 2264.9 1024.25" fill="#575756"/><polygon points="2219.24 1073.93 2192.03 1204.48 2227.31 1204.48 2254.58 1073.93 2219.24 1073.93" fill="#575756"/><path d="M2320.94,1173.75c-5.26,4.14-10.7,6.17-16.39,6.17a18.25,18.25,0,0,1-14.11-6.26c-3.8-4.18-5.68-10.18-5.68-17.86a96.21,96.21,0,0,1,4.74-28.43c3.13-10.13,7.71-17.78,13.55-22.83s12.3-7.57,19.1-7.57c5.89,0,10.62,1.67,14.31,5.15s5.87,8.78,6.72,16.06l33.53-3.54c-1.09-13.15-6.33-23.66-15.47-31.74s-21.5-12-36.88-12a73.78,73.78,0,0,0-39.13,10.85,68.53,68.53,0,0,0-26.65,29.79,93.53,93.53,0,0,0-8.81,40.21q0,26,14.61,41c9.75,9.87,22.95,14.87,39.52,14.87,14.67,0,27.45-4,38.56-12s19.35-19.49,25.06-34.77l-34.35-5.54C2330.28,1163.48,2326.18,1169.68,2320.94,1173.75Z" fill="#575756"/><path d="M2503,1150.13a101.49,101.49,0,0,0,2.45-23c0-17.76-4.74-31.62-14.12-41.46s-22.11-14.81-38.12-14.81q-37.61,0-57.92,28.24-14.82,20.92-14.84,47.68c0,18.27,5.45,33,16.5,44s25.16,16.72,42.74,16.72a64.42,64.42,0,0,0,34.6-9.52c10.31-6.39,18.46-15.92,24.6-28.57l-31.56-5.3c-6.56,12.07-15.62,18.16-27.47,18.16a23.7,23.7,0,0,1-18.05-8c-5-5.25-7.51-12.35-7.51-21,0-.75.13-1.78.17-3.22Zm-73.29-45.78c5.88-5.52,12.36-8.29,19.67-8.29s13.11,2.45,17.46,7.29,6.49,12,6.49,21.71c0,.85,0,2-.11,3.57H2418C2420.14,1117.93,2424.09,1109.81,2429.71,1104.35Z" fill="#575756"/><polygon points="1450.2 360.11 1329.94 360.11 1307.39 469.05 1427.63 469.05 1450.2 360.11" fill="#575756"/><polygon points="1294.79 529.38 1201.8 974.3 1322.03 974.3 1414.97 529.38 1294.79 529.38" fill="#575756"/><path d="M2188,525.27a202,202,0,0,0-75.38,14.06q-35.27,14.07-75.8,45.91l46-218.72H1962.58L1834,980.69h120.24l36.85-176.34q17.16-82.08,27.69-104.31a180.78,180.78,0,0,1,54.83-67.88q27.66-21,57.84-20.95c15.91,0,28.45,4.4,37.65,13.42S2183,645.39,2183,660.18c0,8.16-2.89,26.57-8.77,55.38l-55.73,265.13h120.17l54.52-260.15c7.77-37.39,11.74-65.07,11.74-83q0-50.23-31.41-81.23T2188,525.27Z" fill="#575756"/><path d="M2518.68,625h73.74l18.45-89.2h-73.32l32.26-154.2-137.87,82.93-14.62,71.27h-58.68L2340.22,625h58.23L2361.19,804q-15.49,74.12-15.54,94.64,0,43.56,28.93,68.07t92.59,24.52a315.54,315.54,0,0,0,63.68-6.28l18.89-89.24c-21.27,2-34.62,2.93-39.87,2.93-15.34,0-26-2.56-31.78-7.74s-8.82-12.32-8.82-21.56q0-7.14,10.51-57.86Z" fill="#575756"/><path d="M1771,535.81l-16.79,78.78q-20.46-42.32-57.41-65.84a148.4,148.4,0,0,0-81.24-23.48c-35.75,0-70.76,11.27-105.1,33.57s-61.07,55.28-80.08,98.89S1402,749.14,1402,801.43q0,88.83,41.92,134.91,41.74,46,107.14,46,66.74,0,129.07-51.9l-.86,4.18v8.73l-7.51,36q-19.27,92.77-32.74,112.79c-12,17.45-33,26.19-62.74,26.19-21.3,0-37-4.74-47.32-14.22s-15.39-23.23-15.39-41.2a227.59,227.59,0,0,1,2.29-28.09l-107.44,11.56a279.93,279.93,0,0,0-1.87,30q0,64.26,40.43,101.56t121.61,37.4q95.88,0,142-48.16t74.69-184l48.24-231.64,50.16-215.76Zm-58.75,251.06c-23.2,80.72-84.16,134-136.3,119.16s-75.63-92.46-52.46-173.22,84.09-134,136.26-119.11S1735.4,706.19,1712.28,786.87Z" fill="#575756"/><path d="M1175.16,1080.28c8.37,12.35,3.09,22.39-11.85,22.39H982.79c-15,0-34-10.09-42.52-22.39L914,1041.88l-28.79-42.14-55-80.48c-1-1.46-2.08-3.07-3.22-4.74l-6.23-9.12c-2-2.82-3.9-5.68-5.93-8.59L809,888c-2.19-3.14-4.23-6.16-6.11-8.92l-50.43-73.88-29.85-43.6c25.8-16.23,52.4-32.27,78.78-48h161a77.74,77.74,0,0,0,77.57-77.5v-4.39a77.77,77.77,0,0,0-77.57-77.57h-272c-45.7-59.89-90.57-124.84-131.09-193.41,0,0-1.54-.19-4.42-.64H953.72c153.57,0,279.25,120.77,279.25,268.38,0,113.68-74.64,211.47-179.15,250.33-.24.54-.47,1.07-.68,1.62h0c-.28.74-.53,1.48-.75,2.24a27.89,27.89,0,0,0,0,15.4q.27,1,.63,1.92a26.82,26.82,0,0,0,3,5.8l59.6,87.25Z" fill="#e7422c"/><path d="M114.77,964.61h28.35c44.52,0,44.52-69.06,0-69.06H114.77C70.27,895.55,70.27,964.61,114.77,964.61Z" fill="#e7422c"/><path d="M484.58,619.39H416c-44.49,0-44.49,69.06,0,69.06h37.89c44.52,0,44.52,69,0,69H323c-44.53,0-44.53,69.06,0,69.06h71.89c44.55,0,44.55,69,0,69H230c-44.52,0-44.52,69.06,0,69.06H344.31c44.53,0,44.53,69.08,0,69.08H34.7c-44.53,0-44.53,69,0,69H201.16l-.41.74H834.94l-327.51-484Z" fill="#e7422c"/><path d="M1318.65,1139.45H931.34Q794.95,939.79,658.69,740.23,562.25,599,465.77,457.72q-30.47-44.6-61-89.28c-10.88-15.93-23.37-41.21-43-46.55-15.17-4.17-34-1.39-49.34-1.39H152.22c-51.17,0-51.17,79.28,0,79.28H330.38Q466.69,599.4,602.92,799q96.58,141.27,193,282.58,30.42,44.63,60.89,89.21c10.93,15.91,23.47,41.18,43.12,46.62,23.94,6.59,54.75,1.47,79,1.47h4c0-.5-.09-1-.09-1.4a52.13,52.13,0,1,0,104.25,0c0,.43,0,.9,0,1.4h74.65c0-.5-.11-1-.11-1.4a52.14,52.14,0,1,0,104.27,0c0,.43,0,.9,0,1.4h52.87C1369.85,1218.83,1369.85,1139.45,1318.65,1139.45Z" fill="#575756"/><polygon points="7.68 1598.21 79.83 1598.21 79.83 1510.75 192.08 1510.75 192.08 1454.99 79.83 1454.99 79.83 1399.23 207.39 1399.23 207.39 1343.11 7.68 1343.11 7.68 1598.21" fill="#e7412b"/><rect x="241.65" y="1343.11" width="72.16" height="255.11" fill="#e7412b"/><path d="M538.84,1466.1A122.53,122.53,0,0,0,510.6,1453a309.77,309.77,0,0,0-30.8-8.2q-15.49-3.29-28.24-6.38t-20.77-8q-8-4.92-8-13.67a17.36,17.36,0,0,1,4-10.93q4-5.1,13.12-8.38t24.05-3.28a134.79,134.79,0,0,1,34.62,4.74,156,156,0,0,1,36.08,14.94l21.87-53.21q-18.59-11.3-42.82-16.95a217.21,217.21,0,0,0-49.39-5.65q-37.53,0-62.68,11.3t-37.54,29.89a72.65,72.65,0,0,0-12.39,41.18q0,20.42,7.84,33.89a64.52,64.52,0,0,0,20.59,21.87,117.74,117.74,0,0,0,28.43,13.48,279.4,279.4,0,0,0,30.79,8.2q15.12,3.11,28.06,6.56t21,8.38q8,4.92,8,13.3a16.48,16.48,0,0,1-4.19,11.3q-4.19,4.74-13.12,7.29t-24.23,2.55a147.34,147.34,0,0,1-44.65-7.1,167,167,0,0,1-39.54-18L347,1575.62q17.87,12,46.84,19.86a231.54,231.54,0,0,0,60.67,7.84q37.9,0,63-11.3T555.24,1562a72.15,72.15,0,0,0,12.57-41q0-20-8-33.34A64.65,64.65,0,0,0,538.84,1466.1Z" fill="#e7412b"/><polygon points="771.17 1438.95 673.13 1438.95 673.13 1343.11 600.97 1343.11 600.97 1598.21 673.13 1598.21 673.13 1498.72 771.17 1498.72 771.17 1598.21 843.33 1598.21 843.33 1343.11 771.17 1343.11 771.17 1438.95" fill="#e7412b"/><polygon points="1237.28 1343.11 1149.65 1490.5 1060.16 1343.11 1000.76 1343.11 1000.76 1598.21 1067.09 1598.21 1067.09 1466.65 1132.32 1573.07 1164.39 1573.07 1230.08 1462.86 1230.72 1598.21 1297.05 1598.21 1296.68 1343.11 1237.28 1343.11" fill="#e7412b"/><path d="M1430.07,1343.11l-112.62,255.1h73.62l20-49.92H1519l20,49.92h75.08l-113-255.1Zm2.25,152.33,32.73-81.57,32.74,81.57Z" fill="#e7412b"/><path d="M1850.81,1487.43q13.67-20.78,13.67-50.3,0-28.79-13.67-50.11t-39.18-32.62q-25.52-11.28-60.5-11.29H1634.88v255.1H1707v-67.78h39l46.26,67.78h77.26l-55-80.21Q1837.92,1507,1850.81,1487.43ZM1780.65,1410q11.3,10,11.3,27.15,0,17.86-11.3,27.7t-33.89,9.84H1707V1400h39.72Q1769.35,1400,1780.65,1410Z" fill="#e7412b"/><polygon points="2153.47 1343.11 2074.39 1343.11 1975.63 1449.09 1975.63 1343.11 1904.56 1343.11 1904.56 1598.21 1975.63 1598.21 1975.63 1534.31 2002.42 1505.6 2075.48 1598.21 2159.3 1598.21 2049.83 1456.14 2153.47 1343.11" fill="#e7412b"/><polygon points="2249.68 1495.44 2363.02 1495.44 2363.02 1441.87 2249.68 1441.87 2249.68 1399.23 2378.33 1399.23 2378.33 1343.11 2178.62 1343.11 2178.62 1598.21 2383.07 1598.21 2383.07 1542.09 2249.68 1542.09 2249.68 1495.44" fill="#e7412b"/><polygon points="2399.1 1343.11 2399.1 1400.32 2477.46 1400.32 2477.46 1598.21 2549.62 1598.21 2549.62 1400.32 2627.61 1400.32 2627.61 1343.11 2399.1 1343.11" fill="#e7412b"/><polygon points="0 1685.23 28.16 1685.23 28.16 1756.37 54.1 1756.37 54.1 1685.23 82.14 1685.23 82.14 1664.67 0 1664.67 0 1685.23" fill="#575756"/><path d="M151.83,1687.46a32.43,32.43,0,0,0-14.94-3.41,32,32,0,0,0-16,4,27.39,27.39,0,0,0-5.37,4v-32.87H90.65v97.21h24.89v-34.19a21.72,21.72,0,0,1,1.84-9.7,12.07,12.07,0,0,1,5.1-5.43,15.2,15.2,0,0,1,7.34-1.77,10.54,10.54,0,0,1,8.32,3.47q3.08,3.46,3.08,11.07v36.55h25v-40.61q0-11-3.87-18A24.79,24.79,0,0,0,151.83,1687.46Z" fill="#575756"/><path d="M236.39,1688.44a41.33,41.33,0,0,0-19.06-4.39,42.08,42.08,0,0,0-20.11,4.72,35.31,35.31,0,0,0-13.89,13,36.1,36.1,0,0,0-5,19.07,34.82,34.82,0,0,0,5.17,18.79,35.86,35.86,0,0,0,14.54,13.1q9.38,4.79,22.08,4.79a47.78,47.78,0,0,0,17.55-3,32.69,32.69,0,0,0,12.45-8.45l-13-13.76a27.19,27.19,0,0,1-7.34,4.65,23.73,23.73,0,0,1-9,1.51,21.38,21.38,0,0,1-9.69-2,14.33,14.33,0,0,1-6.22-5.83,15.39,15.39,0,0,1-1.45-3.54h51.55c.09-1,.18-2,.27-3.14s.13-2.14.13-3q0-11.79-5.18-20A34.7,34.7,0,0,0,236.39,1688.44Zm-26.79,15.4a15.7,15.7,0,0,1,8-2,14.76,14.76,0,0,1,7.73,2,13.83,13.83,0,0,1,5.17,5.56,15,15,0,0,1,1.53,4.65H203a17.17,17.17,0,0,1,1.43-4.65A12.78,12.78,0,0,1,209.6,1703.84Z" fill="#575756"/><path d="M383.89,1716.54q4.92-7.47,4.91-18.08a32.62,32.62,0,0,0-4.91-18,31.22,31.22,0,0,0-14.08-11.72q-9.18-4.07-21.75-4.06H306.27v91.7h25.94V1732h14l16.63,24.37h27.77l-19.8-28.85A31,31,0,0,0,383.89,1716.54Zm-25.22-27.83a12.36,12.36,0,0,1,4.06,9.75q0,6.42-4.06,10c-2.7,2.36-6.77,3.54-12.18,3.54H332.21V1685.1h14.28C351.9,1685.1,356,1686.3,358.67,1688.71Z" fill="#575756"/><rect x="401.9" y="1685.23" width="24.89" height="71.13" fill="#575756"/><path d="M425.35,1654.71q-4.19-3.54-11-3.54t-11.07,3.74a12.1,12.1,0,0,0-4.13,9.36,12.33,12.33,0,0,0,4.13,9.44q4.13,3.8,11.07,3.79t11.07-3.93a13,13,0,0,0,4.12-9.82A11.28,11.28,0,0,0,425.35,1654.71Z" fill="#575756"/><path d="M495.57,1693.86a21.81,21.81,0,0,0-6.82-6.14,31,31,0,0,0-15.59-3.67,36.19,36.19,0,0,0-17.22,4.2,32.64,32.64,0,0,0-12.71,11.92,36.94,36.94,0,0,0,0,36.35,33.31,33.31,0,0,0,12.71,11.92,35.78,35.78,0,0,0,17.22,4.26q9.18,0,15.59-3.67a21.5,21.5,0,0,0,5.51-4.51v2.15q0,8.38-4.39,12.77t-14.35,4.39a44,44,0,0,1-13-2,34.88,34.88,0,0,1-11.07-5.43l-9,17.29a46.51,46.51,0,0,0,15.72,6.94,79.26,79.26,0,0,0,19.52,2.36q19.9,0,30.72-9.69t10.81-29.87v-58.17H495.57ZM492.62,1726a14.21,14.21,0,0,1-5.44,5.11,18.12,18.12,0,0,1-15.91,0,14.43,14.43,0,0,1-5.57-5.11,14.78,14.78,0,0,1,0-15.19,14.05,14.05,0,0,1,5.57-5,18.86,18.86,0,0,1,15.91,0,13.84,13.84,0,0,1,5.44,5,15.22,15.22,0,0,1,0,15.19Z" fill="#575756"/><path d="M596.43,1687.46a32.39,32.39,0,0,0-14.93-3.41,31.94,31.94,0,0,0-16,4,27.39,27.39,0,0,0-5.37,4v-32.87H535.26v97.21h24.89v-34.19a21.87,21.87,0,0,1,1.83-9.7,12.09,12.09,0,0,1,5.11-5.43,15.18,15.18,0,0,1,7.34-1.77,10.52,10.52,0,0,1,8.31,3.47q3.09,3.46,3.08,11.07v36.55h25v-40.61q0-11-3.86-18A24.82,24.82,0,0,0,596.43,1687.46Z" fill="#575756"/><path d="M661.67,1738.29a7.19,7.19,0,0,1-5.43-2.1c-1.36-1.39-2-3.45-2-6.15v-23.45h16.24V1688H654.21v-18.6h-24.9V1688H619v18.61h10.34v23.84q0,13.62,7.6,20.37t21.22,6.75a44.28,44.28,0,0,0,9.5-1,23.19,23.19,0,0,0,7.93-3.21l-6.29-17.29A13.15,13.15,0,0,1,661.67,1738.29Z" fill="#575756"/><path d="M752.91,1691.46a22.06,22.06,0,0,1,8.06-5.31,28.35,28.35,0,0,1,10.35-1.83,25.46,25.46,0,0,1,11.79,2.75,32.22,32.22,0,0,1,9.82,8l16.51-14.94a42.72,42.72,0,0,0-16.71-12.9,60.36,60.36,0,0,0-42.77-.92,48.19,48.19,0,0,0-16,9.83,44.77,44.77,0,0,0-10.61,15.13,50.68,50.68,0,0,0,0,38.51A44.58,44.58,0,0,0,734,1744.9a48,48,0,0,0,16,9.83,56.29,56.29,0,0,0,20,3.47,55.52,55.52,0,0,0,22.72-4.45,43.17,43.17,0,0,0,16.71-13l-16.51-14.94a31.47,31.47,0,0,1-9.82,8.13,25.58,25.58,0,0,1-11.79,2.75,28.14,28.14,0,0,1-10.35-1.84,22.16,22.16,0,0,1-8.06-5.3,25.08,25.08,0,0,1-5.24-8.32,31.33,31.33,0,0,1,0-21.49A24.93,24.93,0,0,1,752.91,1691.46Z" fill="#575756"/><path d="M881,1687.46a32.39,32.39,0,0,0-14.93-3.41,31.94,31.94,0,0,0-16,4,27.45,27.45,0,0,0-5.38,4v-32.87H819.78v97.21h24.89v-34.19a21.72,21.72,0,0,1,1.84-9.7,12,12,0,0,1,5.11-5.43,15.17,15.17,0,0,1,7.33-1.77,10.53,10.53,0,0,1,8.32,3.47q3.08,3.46,3.08,11.07v36.55h25v-40.61q0-11-3.86-18A24.82,24.82,0,0,0,881,1687.46Z" fill="#575756"/><path d="M968.27,1688.77a47.88,47.88,0,0,0-41.46,0,35.93,35.93,0,0,0-14.21,13,37.44,37.44,0,0,0,0,38,35.93,35.93,0,0,0,14.21,13,47.88,47.88,0,0,0,41.46,0,35.86,35.86,0,0,0,14.28-13,37.5,37.5,0,0,0,0-38A35.86,35.86,0,0,0,968.27,1688.77Zm-7.86,41.2a14.16,14.16,0,0,1-5.37,5.83,15.44,15.44,0,0,1-15.06,0,14.25,14.25,0,0,1-5.38-5.83,19.66,19.66,0,0,1-2-9.24,18.82,18.82,0,0,1,2-9.17,14.65,14.65,0,0,1,25.81,0,18.82,18.82,0,0,1,2,9.17A19.66,19.66,0,0,1,960.41,1730Z" fill="#575756"/><rect x="999.12" y="1685.23" width="24.89" height="71.13" fill="#575756"/><path d="M1022.57,1654.71q-4.2-3.54-11-3.54t-11.06,3.74a12.07,12.07,0,0,0-4.13,9.36,12.29,12.29,0,0,0,4.13,9.44q4.13,3.8,11.06,3.79t11.07-3.93a13,13,0,0,0,4.13-9.82A11.31,11.31,0,0,0,1022.57,1654.71Z" fill="#575756"/><path d="M1068.48,1705.93a15.58,15.58,0,0,1,7.8-2,14.79,14.79,0,0,1,8,2.29,17.52,17.52,0,0,1,6.16,7.27l19.25-10a28.62,28.62,0,0,0-12.44-14.34q-8.77-5.18-20.83-5.18a44.91,44.91,0,0,0-21.09,4.79,36.75,36.75,0,0,0-14.41,13,36.94,36.94,0,0,0,0,37.93,36.16,36.16,0,0,0,14.41,13,45.5,45.5,0,0,0,21.09,4.72q12,0,20.83-5.18a28.62,28.62,0,0,0,12.44-14.34l-19.25-9.83a17.52,17.52,0,0,1-6.16,7.27,14.79,14.79,0,0,1-8,2.29,15.58,15.58,0,0,1-7.8-2,14.43,14.43,0,0,1-5.56-5.76,21.38,21.38,0,0,1,0-18.48A14.68,14.68,0,0,1,1068.48,1705.93Z" fill="#575756"/><path d="M1172,1688.44a41.3,41.3,0,0,0-19.06-4.39,42.13,42.13,0,0,0-20.11,4.72,35.35,35.35,0,0,0-13.88,13,36,36,0,0,0-5.05,19.07,34.83,34.83,0,0,0,5.18,18.79,35.79,35.79,0,0,0,14.54,13.1q9.36,4.79,22.07,4.79a47.8,47.8,0,0,0,17.56-3,32.65,32.65,0,0,0,12.44-8.45l-13-13.76a27.15,27.15,0,0,1-7.33,4.65,23.76,23.76,0,0,1-9,1.51,21.4,21.4,0,0,1-9.7-2,14.39,14.39,0,0,1-6.22-5.83,15.39,15.39,0,0,1-1.45-3.54h51.56c.09-1,.17-2,.26-3.14s.13-2.14.13-3q0-11.79-5.17-20A34.73,34.73,0,0,0,1172,1688.44Zm-26.79,15.4a15.72,15.72,0,0,1,8-2,14.73,14.73,0,0,1,7.73,2,13.85,13.85,0,0,1,5.18,5.56,15.23,15.23,0,0,1,1.53,4.65h-29a17.18,17.18,0,0,1,1.44-4.65A12.76,12.76,0,0,1,1145.18,1703.84Z" fill="#575756"/><path d="M1296.94,1688.77a47.88,47.88,0,0,0-41.46,0,36,36,0,0,0-14.21,13,37.5,37.5,0,0,0,0,38,36,36,0,0,0,14.21,13,47.88,47.88,0,0,0,41.46,0,35.86,35.86,0,0,0,14.28-13,37.44,37.44,0,0,0,0-38A35.86,35.86,0,0,0,1296.94,1688.77Zm-7.86,41.2a14.16,14.16,0,0,1-5.37,5.83,15.44,15.44,0,0,1-15.06,0,14.16,14.16,0,0,1-5.37-5.83,19.54,19.54,0,0,1-2-9.24,18.71,18.71,0,0,1,2-9.17,14.64,14.64,0,0,1,25.8,0,18.71,18.71,0,0,1,2,9.17A19.54,19.54,0,0,1,1289.08,1730Z" fill="#575756"/><path d="M1357.07,1679.4a8.1,8.1,0,0,1,6-2.29,14,14,0,0,1,4.13.59,16.77,16.77,0,0,1,3.47,1.51l6.16-17.56a23.42,23.42,0,0,0-7.54-2.75,45.06,45.06,0,0,0-9-.91q-14.15,0-21.88,7.66t-7.73,20.63v1.7h-10.34v18.61h10.34v49.78h24.89v-49.78h16.25V1688h-17v-1.44Q1354.78,1681.7,1357.07,1679.4Z" fill="#575756"/><path d="M1483.94,1668.73q-9.17-4.07-21.74-4.06h-41.79v91.7h25.94v-24h15.85q12.57,0,21.74-4.12a32,32,0,0,0,14.09-11.66q4.9-7.53,4.91-18.15a32.7,32.7,0,0,0-4.91-18A31.3,31.3,0,0,0,1483.94,1668.73Zm-11.13,39.62q-4.07,3.48-12.19,3.48h-14.27V1685.1h14.27q8.13,0,12.19,3.61a12.39,12.39,0,0,1,4.06,9.75Q1476.87,1704.88,1472.81,1708.35Z" fill="#575756"/><path d="M1538.83,1693.85v-8.62H1515v71.14h24.89v-32.62q0-9.3,4.72-13.43t12.31-4.13c.87,0,1.75,0,2.62.07a27.47,27.47,0,0,1,3,.33v-22.54q-10.08,0-17.09,4.07A23.1,23.1,0,0,0,1538.83,1693.85Z" fill="#575756"/><path d="M1628.5,1688.77a47.88,47.88,0,0,0-41.46,0,36,36,0,0,0-14.21,13,37.44,37.44,0,0,0,0,38,36,36,0,0,0,14.21,13,47.88,47.88,0,0,0,41.46,0,35.86,35.86,0,0,0,14.28-13,37.44,37.44,0,0,0,0-38A35.86,35.86,0,0,0,1628.5,1688.77Zm-7.86,41.2a14.16,14.16,0,0,1-5.37,5.83,15.44,15.44,0,0,1-15.06,0,14.16,14.16,0,0,1-5.37-5.83,19.54,19.54,0,0,1-2-9.24,18.71,18.71,0,0,1,2-9.17,14.64,14.64,0,0,1,25.8,0,18.71,18.71,0,0,1,2,9.17A19.54,19.54,0,0,1,1620.64,1730Z" fill="#575756"/><path d="M1694.59,1738.29a7.23,7.23,0,0,1-5.44-2.1c-1.35-1.39-2-3.45-2-6.15v-23.45h16.25V1688h-16.25v-18.6h-24.89V1688h-10.35v18.61h10.35v23.84q0,13.62,7.6,20.37t21.22,6.75a44.28,44.28,0,0,0,9.5-1,23.35,23.35,0,0,0,7.93-3.21l-6.29-17.29A13.17,13.17,0,0,1,1694.59,1738.29Z" fill="#575756"/><path d="M1827.36,1654.71q-4.2-3.54-11-3.54t-11.07,3.74a12.09,12.09,0,0,0-4.12,9.36,12.32,12.32,0,0,0,4.12,9.44q4.13,3.8,11.07,3.79t11.07-3.93a13,13,0,0,0,4.13-9.82A11.31,11.31,0,0,0,1827.36,1654.71Z" fill="#575756"/><rect x="1803.91" y="1685.23" width="24.89" height="71.13" fill="#575756"/><path d="M1902.08,1687.46a32.39,32.39,0,0,0-14.93-3.41,31.94,31.94,0,0,0-16,4,27.49,27.49,0,0,0-6.42,5v-7.83h-23.84v71.14h24.89v-34.19a21.87,21.87,0,0,1,1.83-9.7,12.09,12.09,0,0,1,5.11-5.43,15.18,15.18,0,0,1,7.34-1.77,10.56,10.56,0,0,1,8.32,3.47q3.07,3.46,3.07,11.07v36.55h25v-40.61q0-11-3.87-18A24.82,24.82,0,0,0,1902.08,1687.46Z" fill="#575756"/><path d="M1772.64,1688.44a41.3,41.3,0,0,0-19.06-4.39,42.06,42.06,0,0,0-20.1,4.72,35.31,35.31,0,0,0-13.89,13,36.1,36.1,0,0,0-5,19.07,34.82,34.82,0,0,0,5.17,18.79,35.86,35.86,0,0,0,14.54,13.1q9.36,4.79,22.07,4.79a47.8,47.8,0,0,0,17.56-3,32.65,32.65,0,0,0,12.44-8.45l-13-13.76A27.34,27.34,0,0,1,1766,1737a23.76,23.76,0,0,1-9,1.51,21.32,21.32,0,0,1-9.69-2,14.36,14.36,0,0,1-6.23-5.83,15.85,15.85,0,0,1-1.45-3.54h51.56c.09-1,.17-2,.26-3.14s.13-2.14.13-3q0-11.79-5.17-20A34.73,34.73,0,0,0,1772.64,1688.44Zm-26.79,15.4a15.74,15.74,0,0,1,8-2,14.78,14.78,0,0,1,7.73,2,13.9,13.9,0,0,1,5.17,5.56,15.23,15.23,0,0,1,1.53,4.65h-29a17.18,17.18,0,0,1,1.44-4.65A12.76,12.76,0,0,1,1745.85,1703.84Z" fill="#575756"/><path d="M2000.21,1686.54q0-4.85,2.29-7.14a8.09,8.09,0,0,1,6-2.29,14,14,0,0,1,4.13.59,16.77,16.77,0,0,1,3.47,1.51l6.15-17.56a23.36,23.36,0,0,0-7.53-2.75,45.06,45.06,0,0,0-9-.91q-14.14,0-21.88,7.66t-7.73,20.63v1.7h-10.35v18.61h10.35v49.78H2001v-49.78h16.25V1688h-17Z" fill="#575756"/><path d="M2082,1688.77a47.9,47.9,0,0,0-41.47,0,36,36,0,0,0-14.21,13,37.5,37.5,0,0,0,0,38,36,36,0,0,0,14.21,13,47.9,47.9,0,0,0,41.47,0,35.9,35.9,0,0,0,14.27-13,37.44,37.44,0,0,0,0-38A35.9,35.9,0,0,0,2082,1688.77Zm-7.86,41.2a14.25,14.25,0,0,1-5.38,5.83,15.44,15.44,0,0,1-15.06,0,14.16,14.16,0,0,1-5.37-5.83,19.54,19.54,0,0,1-2-9.24,18.71,18.71,0,0,1,2-9.17,14.66,14.66,0,0,1,25.81,0,18.82,18.82,0,0,1,2,9.17A19.66,19.66,0,0,1,2074.16,1730Z" fill="#575756"/><path d="M2136.71,1693.85v-8.62h-23.85v71.14h24.89v-32.62q0-9.3,4.72-13.43t12.31-4.13c.88,0,1.75,0,2.62.07a27.63,27.63,0,0,1,3,.33v-22.54q-10.1,0-17.1,4.07A23.06,23.06,0,0,0,2136.71,1693.85Z" fill="#575756"/><path d="M2242.56,1728.71l-17.43-43.48h-25.55l30.41,72a13,13,0,0,1-3.22,4.24,10.17,10.17,0,0,1-6.49,1.83,16.49,16.49,0,0,1-5.83-1.11,18.39,18.39,0,0,1-5.17-3l-8.78,17.29a28.84,28.84,0,0,0,9.43,4.65,38.27,38.27,0,0,0,11.27,1.77,37.86,37.86,0,0,0,12.9-2.1,26.23,26.23,0,0,0,10.55-7.27q4.71-5.17,8.51-14.34l30.53-74h-23.58Z" fill="#575756"/><path d="M2344.67,1688.77a47.9,47.9,0,0,0-41.47,0,36,36,0,0,0-14.21,13,37.5,37.5,0,0,0,0,38,36,36,0,0,0,14.21,13,47.9,47.9,0,0,0,41.47,0,35.9,35.9,0,0,0,14.27-13,37.44,37.44,0,0,0,0-38A35.9,35.9,0,0,0,2344.67,1688.77Zm-7.87,41.2a14.16,14.16,0,0,1-5.37,5.83,15.44,15.44,0,0,1-15.06,0A14.16,14.16,0,0,1,2311,1730a19.54,19.54,0,0,1-2-9.24,18.71,18.71,0,0,1,2-9.17,14.64,14.64,0,0,1,25.8,0,18.71,18.71,0,0,1,2,9.17A19.54,19.54,0,0,1,2336.8,1730Z" fill="#575756"/><path d="M2425.16,1719.69a23,23,0,0,1-1.7,9.49,11.33,11.33,0,0,1-4.78,5.44,13.67,13.67,0,0,1-6.75,1.7q-5.62,0-8.71-3.6t-3.08-11.85v-35.64h-24.89v39.7q0,11.27,3.87,18.53a24.1,24.1,0,0,0,10.74,10.68,34.5,34.5,0,0,0,15.52,3.41,30,30,0,0,0,15-3.87,24,24,0,0,0,6.09-4.85v7.54h23.58v-71.14h-24.89Z" fill="#575756"/><path d="M2476.64,1728.07a15,15,0,0,0-10.61,4,13.68,13.68,0,0,0-4.32,10.54,14.26,14.26,0,0,0,4.32,10.81,15.69,15.69,0,0,0,21.22,0,14.23,14.23,0,0,0,4.33-10.81,13.65,13.65,0,0,0-4.33-10.54A15,15,0,0,0,2476.64,1728.07Z" fill="#575756"/><path d="M2513.71,1728.07a15,15,0,0,0-10.61,4,13.68,13.68,0,0,0-4.32,10.54,14.26,14.26,0,0,0,4.32,10.81,15.71,15.71,0,0,0,21.23,0,14.26,14.26,0,0,0,4.32-10.81,13.68,13.68,0,0,0-4.32-10.54A15.05,15.05,0,0,0,2513.71,1728.07Z" fill="#575756"/><path d="M2561.4,1732.07a16.07,16.07,0,0,0-21.22,0,13.65,13.65,0,0,0-4.33,10.54,14.23,14.23,0,0,0,4.33,10.81,15.69,15.69,0,0,0,21.22,0,14.26,14.26,0,0,0,4.32-10.81A13.68,13.68,0,0,0,2561.4,1732.07Z" fill="#575756"/><path d="M1052.93,516.31l-.54,366.38,0,15.4-.06,40.7S948.45,852.54,823.1,713.62q-3.78-4.18-7.58-8.44c-40.57-45.33-83.19-96-125.11-151-45.7-59.89-90.57-124.84-131.09-193.41,0,0-1.54-.19-4.42-.64-23.6-3.67-137-24.79-224-102.4,0,0,98.88,13.41,199-17.94,0,0-34-141.52-118.27-239.77,0,0,177,111,195.91,203.38,0,0,180.47,22.93,310.11,128.27q18.13,14.67,34.09,28.46C1016.3,416.19,1053,463.17,1052.93,516.31Z" fill="url(#linear-gradient)"/><path d="M1053.14,880.44h0c0,7-.09,13.53-.14,19.56-.17,18.62-.4,32.29-.69,38.78-1.82,39.14-66.29,82.39-138.27,103.09-9.31,2.68-18.75,5-28.19,6.84-4.52,1.34-9.12,2.65-13.81,3.9-19.63,5.31-40.64,9.9-62.29,13.56q-10.92,1.85-22,3.36c-116.86,16-244.27,3.6-267.9-70.61C499.89,944.5,548.58,886.54,623.6,829.22q8.37-6.39,17.16-12.78c15.1-11,31.06-21.92,47.58-32.8q16.78-11.05,34.24-22c25.8-16.23,52.4-32.27,78.78-48l14.16-8.44c79.54-47.35,155.38-91.84,199.11-130.67,23.95-21.25,38.27-40.81,38.3-58.2C1052.93,516.31,1053.85,761.91,1053.14,880.44Z" fill="url(#linear-gradient-2)"/><path d="M645.35,960.72a25.09,25.09,0,1,1,17.36-31A25.09,25.09,0,0,1,645.35,960.72Z" fill="#1d1d1b"/></g></g></svg>