<svg xmlns="http://www.w3.org/2000/svg" xmlns:xlink="http://www.w3.org/1999/xlink" width="8554.28" height="1503.18" viewBox="0 0 8554.28 1503.18"><defs><linearGradient id="linear-gradient" x1="1118.75" y1="431.08" x2="930.48" y2="700.81" gradientUnits="userSpaceOnUse"><stop offset="0" stop-color="#35a8e0"/><stop offset="0.53" stop-color="#4071b6"/><stop offset="1" stop-color="#484595"/></linearGradient><linearGradient id="linear-gradient-2" x1="1018.43" y1="776.94" x2="1166" y2="1088.79" gradientUnits="userSpaceOnUse"><stop offset="0" stop-color="#2d2e82"/><stop offset="0.11" stop-color="#2b3789"/><stop offset="0.7" stop-color="#2160aa"/><stop offset="1" stop-color="#1d70b7"/></linearGradient></defs><g id="Layer_2" data-name="Layer 2"><g id="Layer_1-2" data-name="Layer 1"><rect width="8554.28" height="1503.18" rx="226.47" fill="#e3f0fb"/><path d="M2158,1272.11c-3,8.17-7.12,14.37-12.32,18.43s-10.66,6.18-16.42,6.18a18.31,18.31,0,0,1-14.07-6.27c-3.77-4.18-5.64-10.17-5.64-17.86a97.23,97.23,0,0,1,4.68-28.42c3.11-10.13,7.73-17.79,13.59-22.84s12.27-7.57,19.08-7.57c5.92,0,10.67,1.67,14.27,5.15s5.93,8.79,6.75,16.06l33.57-3.54c-1.16-13.14-6.34-23.65-15.48-31.74s-21.51-12-36.9-12a73.16,73.16,0,0,0-39.06,10.86,67.91,67.91,0,0,0-26.73,29.79,94.38,94.38,0,0,0-8.84,40.21c0,17.35,5,31,14.7,40.94s22.92,14.87,39.49,14.87c14.68,0,27.45-3.95,38.49-11.95s19.43-19.49,25.14-34.76Z" fill="#575756"/><path d="M2324.23,1196.78c-6.18-6.06-14.49-9.09-25.06-9.09a60.17,60.17,0,0,0-22.15,4,95.46,95.46,0,0,0-22.2,13.51l13.47-64.21H2233l-37.72,180.24h35.23l10.82-51.78c3.35-16,6-26.26,8.1-30.57A54,54,0,0,1,2265.6,1219a27.75,27.75,0,0,1,17-6.13c4.64,0,8.28,1.31,11,3.92a13.86,13.86,0,0,1,4.07,10.46c0,2.38-.84,7.8-2.57,16.22l-16.34,77.82h35.33l15.93-76.35c2.28-11,3.46-19.09,3.46-24.3C2333.46,1210.77,2330.41,1202.82,2324.23,1196.78Z" fill="#575756"/><path d="M2457.18,1203.57c-10.84-10.61-25.8-15.88-45.12-15.88-22.18,0-40.14,7.18-53.73,21.56s-20.48,33.65-20.48,57.83a62.19,62.19,0,0,0,6.94,29A48.08,48.08,0,0,0,2366.1,1317q14.3,7.39,32.68,7.4c22.76,0,40.82-7.74,54.34-23.12s20.31-33.65,20.31-54.83C2473.43,1228.47,2468,1214.21,2457.18,1203.57Zm-32.86,81.07c-6.46,8.28-14.59,12.43-24.28,12.43a25.14,25.14,0,0,1-19.21-8.25q-7.6-8.25-7.59-22.28c0-7.52,1.62-15.71,4.93-24.77S2386,1226,2392,1221.29a31.44,31.44,0,0,1,20.23-7.08c7.72,0,14,2.52,18.87,7.56s7.34,11.78,7.34,20.08Q2438.39,1267.07,2424.32,1284.64Z" fill="#575756"/><polygon points="2543.45 1141.04 2508.15 1141.04 2501.53 1173.04 2536.86 1173.04 2543.45 1141.04" fill="#575756"/><polygon points="2497.79 1190.72 2470.58 1321.28 2505.86 1321.28 2533.12 1190.72 2497.79 1190.72" fill="#575756"/><path d="M2599.49,1290.54c-5.26,4.14-10.71,6.18-16.39,6.18a18.23,18.23,0,0,1-14.11-6.27c-3.8-4.18-5.69-10.17-5.69-17.86a96.13,96.13,0,0,1,4.75-28.42c3.13-10.13,7.71-17.79,13.54-22.84s12.3-7.57,19.11-7.57c5.89,0,10.62,1.67,14.31,5.15s5.87,8.79,6.72,16.06l33.53-3.54c-1.1-13.14-6.33-23.65-15.48-31.74s-21.49-12-36.87-12a73.7,73.7,0,0,0-39.13,10.86,68.46,68.46,0,0,0-26.65,29.79,93.32,93.32,0,0,0-8.81,40.21q0,26,14.61,40.94c9.74,9.87,23,14.87,39.52,14.87,14.66,0,27.45-3.95,38.55-11.95s19.36-19.49,25.07-34.76l-34.35-5.54C2608.83,1280.28,2604.72,1286.48,2599.49,1290.54Z" fill="#575756"/><path d="M2781.54,1266.92a100.89,100.89,0,0,0,2.46-23c0-17.75-4.74-31.62-14.12-41.45s-22.11-14.82-38.12-14.82q-37.61,0-57.92,28.24-14.84,20.92-14.84,47.69c0,18.26,5.44,33,16.5,44s25.16,16.72,42.74,16.72a64.42,64.42,0,0,0,34.6-9.52c10.3-6.39,18.45-15.92,24.6-28.57l-31.56-5.3c-6.57,12.08-15.63,18.17-27.47,18.17a23.75,23.75,0,0,1-18.06-8c-4.95-5.26-7.5-12.36-7.5-21,0-.74.13-1.78.17-3.22Zm-73.28-45.78c5.88-5.52,12.36-8.28,19.67-8.28s13.11,2.45,17.46,7.28,6.49,12,6.49,21.71c0,.85,0,2-.11,3.58h-55.2C2698.69,1234.73,2702.64,1226.6,2708.26,1221.14Z" fill="#575756"/><polygon points="1728.74 476.91 1608.49 476.91 1585.93 585.84 1706.18 585.84 1728.74 476.91" fill="#575756"/><polygon points="1573.34 646.18 1480.35 1091.09 1600.57 1091.09 1693.52 646.18 1573.34 646.18" fill="#575756"/><path d="M2466.54,642.06a202.13,202.13,0,0,0-75.39,14.06q-35.25,14.07-75.79,45.91l46-218.72H2241.13l-128.57,614.18h120.25l36.85-176.35q17.16-82.08,27.69-104.31A180.74,180.74,0,0,1,2352.17,749q27.67-21,57.85-21c15.9,0,28.45,4.41,37.65,13.43s13.86,20.75,13.86,35.55c0,8.15-2.89,26.57-8.77,55.37L2397,1097.49H2517.2l54.52-260.15c7.77-37.4,11.74-65.07,11.74-83q0-50.24-31.41-81.22T2466.54,642.06Z" fill="#575756"/><path d="M2797.23,741.8H2871l18.46-89.2H2816.1l32.26-154.2-137.87,82.93-14.62,71.27h-58.68l-18.43,89.2H2677l-37.26,179q-15.49,74.1-15.54,94.64,0,43.55,28.93,68.06t92.58,24.53a316.43,316.43,0,0,0,63.69-6.28l18.89-89.24c-21.27,2-34.62,2.93-39.87,2.93-15.34,0-26-2.57-31.78-7.75s-8.82-12.31-8.82-21.56q0-7.14,10.51-57.85Z" fill="#575756"/><path d="M2049.58,652.6l-16.79,78.78q-20.47-42.32-57.41-65.83a148.32,148.32,0,0,0-81.24-23.49c-35.75,0-70.76,11.27-105.1,33.57S1728,730.92,1709,774.53s-28.42,91.41-28.42,143.7q0,88.82,41.91,134.9,41.74,46,107.15,46,66.73,0,129.07-51.9l-.86,4.19v8.72l-7.52,36q-19.26,92.79-32.73,112.79c-12,17.45-33,26.19-62.74,26.19-21.3,0-37-4.74-47.33-14.22s-15.38-23.23-15.38-41.2a227.3,227.3,0,0,1,2.28-28.09l-107.44,11.57a282.18,282.18,0,0,0-1.86,30q0,64.27,40.42,101.57t121.62,37.39q95.88,0,142-48.16t74.69-184l48.23-231.63,50.17-215.77Zm-58.75,251.06c-23.2,80.73-84.16,134-136.3,119.16s-75.63-92.46-52.47-173.21,84.1-134.05,136.27-119.11S2013.94,823,1990.83,903.66Z" fill="#575756"/><path d="M1453.71,1197.07c8.37,12.35,3.09,22.39-11.85,22.39H1261.34c-15,0-34-10.09-42.52-22.39l-26.23-38.4-28.79-42.14-55-80.48c-1-1.46-2.08-3.07-3.22-4.74l-6.23-9.12c-2-2.82-3.9-5.68-5.93-8.59l-6-8.78c-2.19-3.14-4.23-6.16-6.11-8.92L1031,922l-29.85-43.6c25.8-16.23,52.4-32.27,78.78-48h161a77.74,77.74,0,0,0,77.57-77.5v-4.39A77.77,77.77,0,0,0,1240.93,671H969c-45.7-59.89-90.57-124.84-131.09-193.41,0,0-1.54-.19-4.42-.64h398.82c153.57,0,279.25,120.77,279.25,268.38,0,113.68-74.64,211.47-179.15,250.33-.24.54-.47,1.07-.68,1.62h0c-.28.74-.53,1.48-.75,2.24a27.89,27.89,0,0,0,0,15.4q.27,1,.63,1.92a26.82,26.82,0,0,0,3,5.8l59.6,87.25Z" fill="#e7422c"/><path d="M393.31,1081.4h28.36c44.52,0,44.52-69.05,0-69.05H393.31C348.81,1012.35,348.81,1081.4,393.31,1081.4Z" fill="#e7422c"/><path d="M763.13,736.19H694.51c-44.5,0-44.5,69,0,69H732.4c44.52,0,44.52,69,0,69H601.52c-44.52,0-44.52,69.05,0,69.05h71.89c44.56,0,44.56,69,0,69H508.52c-44.52,0-44.52,69.05,0,69.05H622.86c44.53,0,44.53,69.09,0,69.09H313.25c-44.54,0-44.54,69,0,69H479.71l-.41.74h634.19L786,736.19Z" fill="#e7422c"/><path d="M1597.2,1256.25H1209.89Q1073.49,1056.59,937.24,857,840.81,715.79,744.31,574.51q-30.46-44.6-61-89.27c-10.87-15.93-23.36-41.21-43-46.56-15.17-4.17-34-1.39-49.34-1.39H430.77c-51.17,0-51.17,79.28,0,79.28H608.93q136.3,199.63,272.54,399.17,96.57,141.28,193,282.59,30.42,44.63,60.89,89.2c10.93,15.92,23.46,41.18,43.12,46.63,23.94,6.58,54.74,1.46,79,1.46h4c0-.5-.09-1-.09-1.39a52.13,52.13,0,1,0,104.25,0c0,.43,0,.89,0,1.39h74.64c0-.5-.1-1-.1-1.39a52.13,52.13,0,1,0,104.26,0c0,.43,0,.89,0,1.39h52.87C1648.4,1335.62,1648.4,1256.25,1597.2,1256.25Z" fill="#575756"/><polygon points="2979.65 1005.77 3123.02 1005.77 3153.66 831.99 3376.68 831.99 3396.21 721.21 3173.2 721.21 3192.73 610.42 3446.16 610.42 3465.82 498.91 3069.02 498.91 2979.65 1005.77" fill="#e7412b"/><polygon points="3444.51 1005.77 3587.88 1005.77 3677.25 498.91 3533.89 498.91 3444.51 1005.77" fill="#e7412b"/><path d="M4081.28,743.29a198.41,198.41,0,0,0-51.52-26.07,544.78,544.78,0,0,0-58.31-16.29q-29.64-6.51-53.89-12.67t-38.46-15.93q-14.2-9.78-11.14-27.15,2-11.58,11.79-21.73t29-16.65q19.23-6.51,48.94-6.52a249.73,249.73,0,0,1,67.12,9.42,256.65,256.65,0,0,1,66.45,29.68l62.09-105.71q-33-22.44-79.14-33.67a405.82,405.82,0,0,0-96.14-11.23q-74.58,0-128.5,22.45t-85,59.37q-31.14,36.95-39.05,81.83-7.14,40.56,3.7,67.34a99.26,99.26,0,0,0,33.25,43.44q22.4,16.66,51.75,26.79a488,488,0,0,0,58.32,16.3q29,6.15,53.45,13t38.7,16.65q14.19,9.78,11.27,26.43a39.72,39.72,0,0,1-12.28,22.45q-10,9.42-28.63,14.48t-49,5.07a269.11,269.11,0,0,1-86.21-14.12q-42-14.12-72.24-35.84l-65.84,106.44q31.26,23.89,86.09,39.46t117.81,15.57q75.3,0,129.23-22.45t85.47-59.74q31.56-37.28,39.35-81.45,7-39.82-4.25-66.26A99.35,99.35,0,0,0,4081.28,743.29Z" fill="#e7412b"/><polygon points="4552.39 689.35 4357.61 689.35 4391.19 498.91 4247.82 498.91 4158.44 1005.77 4301.81 1005.77 4336.67 808.1 4531.45 808.1 4496.59 1005.77 4639.96 1005.77 4729.34 498.91 4585.97 498.91 4552.39 689.35" fill="#e7412b"/><polygon points="5512.06 498.91 5286.32 791.75 5160.16 498.91 5042.13 498.91 4952.76 1005.77 5084.54 1005.77 5130.63 744.37 5222.96 955.81 5286.68 955.81 5455.8 736.84 5409.65 1005.77 5541.44 1005.77 5630.09 498.91 5512.06 498.91" fill="#e7412b"/><path d="M5895.1,498.91,5582,1005.77h146.27l57.3-99.2h214.36l22.32,99.2h149.16L6036.3,498.91Zm-48.9,302.67,93.62-162.07,36.46,162.07Z" fill="#e7412b"/><path d="M6680.49,785.65q34.44-41.26,44.78-99.92,10.08-57.19-9.6-99.57t-66.41-64.8q-46.74-22.44-116.24-22.45H6302l-89.37,506.86H6356l23.75-134.68h77.53l68.15,134.68H6679L6597.7,846.39Q6648,824.55,6680.49,785.65ZM6568.24,631.78q18.92,19.92,12.93,54-6.26,35.47-32.15,55t-70.78,19.55h-78.93l26.17-148.44h78.93Q6549.29,611.87,6568.24,631.78Z" fill="#e7412b"/><polygon points="7332.4 498.91 7175.27 498.91 6941.91 709.48 6979.05 498.91 6837.85 498.91 6748.48 1005.77 6889.67 1005.77 6912.06 878.8 6975.35 821.76 7088.07 1005.77 7254.61 1005.77 7086.89 723.48 7332.4 498.91" fill="#e7412b"/><polygon points="7470.19 801.58 7695.38 801.58 7714.15 695.14 7488.96 695.14 7503.9 610.42 7759.5 610.42 7779.16 498.91 7382.36 498.91 7292.99 1005.77 7699.2 1005.77 7718.86 894.26 7453.85 894.26 7470.19 801.58" fill="#e7412b"/><polygon points="7820.43 498.91 7800.39 612.59 7956.07 612.59 7886.74 1005.77 8030.11 1005.77 8099.44 612.59 8254.39 612.59 8274.43 498.91 7820.43 498.91" fill="#e7412b"/><polygon points="2933.91 1178.67 2989.87 1178.67 2964.95 1320 3016.49 1320 3041.41 1178.67 3097.11 1178.67 3104.31 1137.8 2941.12 1137.8 2933.91 1178.67" fill="#575756"/><path d="M3234.79,1183.09q-12.08-6.77-28.48-6.77a71.53,71.53,0,0,0-33.15,7.94,69.7,69.7,0,0,0-12.07,7.91l11.52-65.3h-49.45L3089.1,1320h49.45l12-67.94q2.11-12,7-19.26a31.23,31.23,0,0,1,12.06-10.8,33.91,33.91,0,0,1,15.19-3.51q10.41,0,15.31,6.9t2.24,22l-12.8,72.62h49.71l14.23-80.69q3.85-21.87-1.39-35.66A38.35,38.35,0,0,0,3234.79,1183.09Z" fill="#575756"/><path d="M3402.45,1185q-15.51-8.71-36.33-8.72a93.74,93.74,0,0,0-41.6,9.37,90.7,90.7,0,0,0-32.16,25.9,84.15,84.15,0,0,0-16.7,37.87q-3.67,20.83,3.7,37.35t24.3,26q16.93,9.51,42.18,9.5,20,0,35.91-5.86a82.25,82.25,0,0,0,27.69-16.78l-21-27.33a69,69,0,0,1-16.21,9.24,51.74,51.74,0,0,1-18.48,3q-11.21,0-18.55-4a22,22,0,0,1-10.32-11.58,26.6,26.6,0,0,1-1.65-7h102.44q.77-2.87,1.62-6.25c.57-2.26,1-4.25,1.32-6q4.13-23.43-3.28-39.69A53.44,53.44,0,0,0,3402.45,1185Zm-58.61,30.59a35,35,0,0,1,16.56-3.91q8.85,0,14.67,3.91a21.48,21.48,0,0,1,8.33,11.06,26.74,26.74,0,0,1,1.41,9.24h-57.69a40.16,40.16,0,0,1,4.48-9.24A32.81,32.81,0,0,1,3343.84,1215.63Z" fill="#575756"/><path d="M3685.68,1240.87q12.38-14.83,16.09-35.92,3.63-20.55-3.45-35.78t-23.87-23.3q-16.8-8.05-41.78-8.07h-83L3517.51,1320h51.54l8.53-48.42h27.87L3630,1320h55.18l-29.23-57.32A79.09,79.09,0,0,0,3685.68,1240.87Zm-40.35-55.31q6.8,7.17,4.65,19.39-2.25,12.77-11.56,19.78t-25.45,7H3584.6l9.41-53.35h28.37Q3638.52,1178.41,3645.33,1185.56Z" fill="#575756"/><polygon points="3707.51 1320 3756.96 1320 3781.88 1178.67 3732.43 1178.67 3707.51 1320" fill="#575756"/><path d="M3789.71,1118q-7.08-7-20.62-7-13.8,0-23.3,7.42a29.51,29.51,0,0,0-11.48,18.61q-2,11.19,4.89,18.74t20.67,7.55q13.78,0,23.37-7.81a31.63,31.63,0,0,0,11.64-19.52Q3796.8,1125,3789.71,1118Z" fill="#575756"/><path d="M3915.51,1195.8a33.38,33.38,0,0,0-11.39-12.19q-11.48-7.27-29.69-7.29a81,81,0,0,0-35.69,8.33,84,84,0,0,0-29.43,23.69,79.09,79.09,0,0,0-15.87,36.18q-3.68,20.82,3.14,36a51.14,51.14,0,0,0,21.07,23.69q14.25,8.46,32.73,8.46,18.23,0,32.26-7.29a54.81,54.81,0,0,0,12.51-9l-.75,4.28q-2.94,16.65-13.19,25.37t-30,8.72a81.11,81.11,0,0,1-25.19-4q-12.43-4-20.09-10.8l-24,34.35q11.14,9.11,28.8,13.8a147.67,147.67,0,0,0,38,4.68q39.57,0,64.43-19.26t31.94-59.34l20.38-115.56h-46.85Zm-17.11,63.81a36.21,36.21,0,0,1-29.11,13.8,29.43,29.43,0,0,1-15.11-3.65,22.34,22.34,0,0,1-9.27-10.15q-3-6.49-1.5-15.09a32.33,32.33,0,0,1,6.82-15.1,36.18,36.18,0,0,1,12.83-10,38.21,38.21,0,0,1,16.37-3.51q9.11,0,15.26,3.51a21.2,21.2,0,0,1,9,10q2.88,6.51,1.37,15.1A33,33,0,0,1,3898.4,1259.61Z" fill="#575756"/><path d="M4118.16,1183.09q-12.09-6.77-28.48-6.77a71.53,71.53,0,0,0-33.15,7.94,69,69,0,0,0-12.07,7.91l11.51-65.3h-49.45L3972.47,1320h49.45l12-67.94q2.11-12,7-19.26a31.14,31.14,0,0,1,12-10.8,34,34,0,0,1,15.2-3.51q10.41,0,15.31,6.9t2.24,22l-12.8,72.62h49.71l14.23-80.69q3.85-21.87-1.4-35.66A38.29,38.29,0,0,0,4118.16,1183.09Z" fill="#575756"/><path d="M4230,1284.08q-6.78,0-10.07-4.17t-1.88-12.23l8.22-46.59h32.27l6.52-37h-32.27l6.51-37h-49.45l-6.52,37h-20.56l-6.52,37h20.57l-8.36,47.37q-4.77,27.07,8,40.48t39.8,13.4a93.66,93.66,0,0,0,19.22-1.95,55.91,55.91,0,0,0,16.87-6.38l-6.44-34.36A29.91,29.91,0,0,1,4230,1284.08Z" fill="#575756"/><path d="M4427.65,1191a55.66,55.66,0,0,1,17.87-10.54,61.46,61.46,0,0,1,21.2-3.65,45,45,0,0,1,22.46,5.47,49.55,49.55,0,0,1,16.73,15.88l38-29.68a65.74,65.74,0,0,0-28.66-25.63q-18.37-8.72-43.62-8.72a121.69,121.69,0,0,0-41,6.9,120.09,120.09,0,0,0-35.2,19.52,114.59,114.59,0,0,0-26.38,30.06,109.27,109.27,0,0,0-14.3,38.26q-3.66,20.82.81,38.26a70.44,70.44,0,0,0,15.78,30.06,75.11,75.11,0,0,0,28.31,19.52q17,6.9,38.61,6.9a121.39,121.39,0,0,0,46.71-8.85,109.75,109.75,0,0,0,37.73-25.77l-27.56-29.67a80.59,80.59,0,0,1-22.37,16.14,56.72,56.72,0,0,1-24.38,5.46,51.24,51.24,0,0,1-19.92-3.64,34.47,34.47,0,0,1-14.15-10.54,39.83,39.83,0,0,1-7.5-16.53,55.18,55.18,0,0,1,0-21.34,66.05,66.05,0,0,1,7.54-21.34A63.55,63.55,0,0,1,4427.65,1191Z" fill="#575756"/><path d="M4683.47,1183.09q-12.07-6.77-28.48-6.77a71.53,71.53,0,0,0-33.15,7.94,69.7,69.7,0,0,0-12.07,7.91l11.52-65.3h-49.45L4537.78,1320h49.45l12-67.94q2.11-12,7-19.26a31.23,31.23,0,0,1,12.06-10.8,33.91,33.91,0,0,1,15.19-3.51q10.41,0,15.31,6.9t2.24,22l-12.8,72.62H4688l14.23-80.69q3.86-21.87-1.39-35.66A38.35,38.35,0,0,0,4683.47,1183.09Z" fill="#575756"/><path d="M4856.48,1185.69q-16.44-9.36-39.6-9.37a98,98,0,0,0-42.77,9.37,92.17,92.17,0,0,0-32.81,25.9,82.74,82.74,0,0,0-17,37.87q-3.72,21.09,3.65,37.61a55.29,55.29,0,0,0,23.67,25.9q16.32,9.38,39.48,9.37A98.71,98.71,0,0,0,4834,1313a92,92,0,0,0,32.94-25.9,82.22,82.22,0,0,0,16.91-37.61q3.76-21.33-3.6-37.87A55.19,55.19,0,0,0,4856.48,1185.69Zm-30,81.86a36.55,36.55,0,0,1-12.71,11.58,32.69,32.69,0,0,1-15.65,3.91,25.36,25.36,0,0,1-14.28-3.91,21.9,21.9,0,0,1-8.63-11.58q-2.68-7.68-.8-18.35,1.92-10.93,7.25-18.22a37.39,37.39,0,0,1,12.64-11.19,32.84,32.84,0,0,1,15.66-3.9,25.43,25.43,0,0,1,14.27,3.9,22.37,22.37,0,0,1,8.7,11.19q2.74,7.29.82,18.22A45.08,45.08,0,0,1,4826.43,1267.55Z" fill="#575756"/><polygon points="4894.1 1320 4943.55 1320 4968.47 1178.67 4919.02 1178.67 4894.1 1320" fill="#575756"/><path d="M4976.3,1118q-7.1-7-20.63-7-13.8,0-23.3,7.42a29.55,29.55,0,0,0-11.48,18.61q-2,11.19,4.9,18.74t20.66,7.55q13.79,0,23.37-7.81a31.63,31.63,0,0,0,11.64-19.52Q4983.38,1125,4976.3,1118Z" fill="#575756"/><path d="M5049.58,1219.79a34.86,34.86,0,0,1,16.17-3.9,25.63,25.63,0,0,1,15.08,4.55q6.48,4.56,9.68,14.45l41.75-19.78a44.64,44.64,0,0,0-19.7-28.51q-15.63-10.27-39.57-10.28a99.86,99.86,0,0,0-43.58,9.5,94.61,94.61,0,0,0-33.2,25.9,81.2,81.2,0,0,0-17.06,37.74q-3.72,21.09,3.77,37.61A55.7,55.7,0,0,0,5007,1313q16.56,9.38,40.25,9.37,23.94,0,43.2-10.28a73.45,73.45,0,0,0,29.75-28.5L5085.37,1264q-6.69,9.89-14.78,14.44a33.53,33.53,0,0,1-16.68,4.56,27.19,27.19,0,0,1-14.8-3.91,22.24,22.24,0,0,1-9-11.45q-2.83-7.54-.95-18.22,2-11.19,7.42-18.48A37.78,37.78,0,0,1,5049.58,1219.79Z" fill="#575756"/><path d="M5261.32,1185q-15.51-8.71-36.33-8.72a93.74,93.74,0,0,0-41.6,9.37,90.7,90.7,0,0,0-32.16,25.9,84.15,84.15,0,0,0-16.7,37.87q-3.68,20.83,3.7,37.35t24.3,26q16.92,9.51,42.18,9.5,20,0,35.91-5.86a82.34,82.34,0,0,0,27.69-16.78l-21-27.33a69,69,0,0,1-16.21,9.24,51.74,51.74,0,0,1-18.48,3q-11.2,0-18.55-4A22,22,0,0,1,5183.8,1269a26.6,26.6,0,0,1-1.65-7h102.44q.77-2.87,1.62-6.25c.57-2.26,1-4.25,1.32-6q4.13-23.43-3.28-39.69A53.44,53.44,0,0,0,5261.32,1185Zm-58.62,30.59a35.08,35.08,0,0,1,16.57-3.91q8.85,0,14.67,3.91a21.48,21.48,0,0,1,8.33,11.06,26.74,26.74,0,0,1,1.41,9.24H5186a40.16,40.16,0,0,1,4.48-9.24A32.85,32.85,0,0,1,5202.7,1215.63Z" fill="#575756"/><path d="M5509.51,1185.69q-16.44-9.36-39.6-9.37a98,98,0,0,0-42.78,9.37,92.35,92.35,0,0,0-32.81,25.9,82.62,82.62,0,0,0-16.95,37.87q-3.72,21.09,3.65,37.61a55.24,55.24,0,0,0,23.67,25.9q16.31,9.38,39.47,9.37a98.78,98.78,0,0,0,42.91-9.37,92.07,92.07,0,0,0,32.93-25.9,82,82,0,0,0,16.91-37.61q3.77-21.33-3.6-37.87A55.17,55.17,0,0,0,5509.51,1185.69Zm-30.05,81.86a36.64,36.64,0,0,1-12.71,11.58,32.76,32.76,0,0,1-15.66,3.91,25.41,25.41,0,0,1-14.28-3.91,22,22,0,0,1-8.63-11.58q-2.68-7.68-.79-18.35,1.92-10.93,7.24-18.22a37.42,37.42,0,0,1,12.65-11.19,32.8,32.8,0,0,1,15.65-3.9,25.48,25.48,0,0,1,14.28,3.9,22.48,22.48,0,0,1,8.7,11.19q2.74,7.29.82,18.22A45.22,45.22,0,0,1,5479.46,1267.55Z" fill="#575756"/><path d="M5632.25,1167.08a18.94,18.94,0,0,1,12.65-4.55,25.56,25.56,0,0,1,8,1.17,27.33,27.33,0,0,1,6.37,3l18.38-34.87a39.11,39.11,0,0,0-14-5.47,85.12,85.12,0,0,0-17.51-1.82q-28.11,0-46.15,15.22t-22.58,41l-.6,3.38h-20.56l-6.52,37h20.56L5552.84,1320h49.46l17.44-98.91H5652l6.52-37h-33.84l.51-2.86Q5626.9,1171.64,5632.25,1167.08Z" fill="#575756"/><path d="M5888.07,1145.87q-16.8-8.05-41.79-8.07h-83L5731.13,1320h51.54l8.39-47.63h31.5q25,0,44.65-8.2t32.06-23.17q12.4-15,16.12-36,3.63-20.55-3.45-35.78T5888.07,1145.87Zm-36,78.73q-9.29,6.92-25.42,6.9h-28.37l9.36-53.09H5836q16.14,0,22.95,7.15t4.64,19.39Q5861.34,1217.72,5852.06,1224.6Z" fill="#575756"/><path d="M5988.32,1195.78l3-17.11H5944L5919.05,1320h49.45l11.43-64.81q3.26-18.48,14.08-26.68t25.91-8.2c1.73,0,3.46,0,5.18.13a58.9,58.9,0,0,1,5.87.65l7.9-44.77q-20.05,0-35.39,8.07A59.83,59.83,0,0,0,5988.32,1195.78Z" fill="#575756"/><path d="M6168.27,1185.69q-16.45-9.36-39.61-9.37a98,98,0,0,0-42.77,9.37,92.26,92.26,0,0,0-32.81,25.9,82.74,82.74,0,0,0-17,37.87q-3.72,21.09,3.65,37.61a55.32,55.32,0,0,0,23.68,25.9q16.3,9.38,39.47,9.37a98.71,98.71,0,0,0,42.9-9.37,92,92,0,0,0,32.94-25.9,82.22,82.22,0,0,0,16.91-37.61q3.77-21.33-3.6-37.87A55.17,55.17,0,0,0,6168.27,1185.69Zm-30.05,81.86a36.58,36.58,0,0,1-12.72,11.58,32.69,32.69,0,0,1-15.65,3.91,25.38,25.38,0,0,1-14.28-3.91,22,22,0,0,1-8.63-11.58q-2.69-7.68-.8-18.35,1.94-10.93,7.25-18.22a37.39,37.39,0,0,1,12.64-11.19,32.84,32.84,0,0,1,15.66-3.9,25.43,25.43,0,0,1,14.27,3.9,22.37,22.37,0,0,1,8.7,11.19q2.76,7.29.82,18.22A45.07,45.07,0,0,1,6138.22,1267.55Z" fill="#575756"/><path d="M6282.23,1284.08q-6.78,0-10.07-4.17t-1.88-12.23l8.21-46.59h32.28l6.52-37H6285l6.52-37h-49.45l-6.52,37H6215l-6.52,37H6229l-8.35,47.37q-4.77,27.07,8,40.48t39.8,13.4a93.56,93.56,0,0,0,19.21-1.95,56,56,0,0,0,16.88-6.38l-6.44-34.36A29.94,29.94,0,0,1,6282.23,1284.08Z" fill="#575756"/><path d="M6575.29,1118q-7.09-7-20.62-7-13.8,0-23.31,7.42a29.59,29.59,0,0,0-11.48,18.61q-2,11.19,4.9,18.74t20.66,7.55q13.8,0,23.37-7.81a31.54,31.54,0,0,0,11.64-19.52Q6582.39,1125,6575.29,1118Z" fill="#575756"/><polygon points="6493.09 1320 6542.54 1320 6567.46 1178.67 6518.01 1178.67 6493.09 1320" fill="#575756"/><path d="M6712.29,1183.09q-12.07-6.77-28.48-6.77a71.53,71.53,0,0,0-33.15,7.94,70.08,70.08,0,0,0-14.51,10l2.74-15.54h-47.37L6566.6,1320h49.45l12-67.94q2.11-12,7-19.26a31.23,31.23,0,0,1,12.06-10.8,33.91,33.91,0,0,1,15.19-3.51q10.41,0,15.32,6.9t2.23,22l-12.8,72.62h49.71l14.23-80.69q3.85-21.87-1.39-35.66T6712.29,1183.09Z" fill="#575756"/><path d="M6454.77,1185q-15.51-8.71-36.33-8.72a93.75,93.75,0,0,0-41.61,9.37,90.88,90.88,0,0,0-32.16,25.9,84.24,84.24,0,0,0-16.69,37.87q-3.67,20.83,3.69,37.35t24.3,26q16.94,9.51,42.19,9.5,20,0,35.9-5.86a82.25,82.25,0,0,0,27.69-16.78l-20.95-27.33a69,69,0,0,1-16.2,9.24,51.79,51.79,0,0,1-18.49,3q-11.19,0-18.55-4a22.09,22.09,0,0,1-10.32-11.58,26.59,26.59,0,0,1-1.64-7H6478q.75-2.87,1.62-6.25c.57-2.26,1-4.25,1.31-6q4.14-23.43-3.28-39.69A53.37,53.37,0,0,0,6454.77,1185Zm-58.62,30.59a35.06,35.06,0,0,1,16.56-3.91q8.85,0,14.67,3.91a21.38,21.38,0,0,1,8.33,11.06,26.74,26.74,0,0,1,1.41,9.24h-57.69a40.19,40.19,0,0,1,4.49-9.24A32.78,32.78,0,0,1,6396.15,1215.63Z" fill="#575756"/><path d="M6907.57,1181.27q1.69-9.63,7.05-14.19a18.94,18.94,0,0,1,12.65-4.55,25.56,25.56,0,0,1,8,1.17,27.33,27.33,0,0,1,6.37,3l18.38-34.87a39.11,39.11,0,0,0-14-5.47,85.12,85.12,0,0,0-17.51-1.82q-28.11,0-46.15,15.22t-22.58,41l-.6,3.38h-20.56l-6.52,37h20.56L6835.21,1320h49.46l17.44-98.91h32.27l6.52-37h-33.84Z" fill="#575756"/><path d="M7069.33,1185.69q-16.44-9.36-39.6-9.37a98,98,0,0,0-42.78,9.37,92.35,92.35,0,0,0-32.81,25.9,82.62,82.62,0,0,0-17,37.87q-3.72,21.09,3.65,37.61a55.24,55.24,0,0,0,23.67,25.9q16.31,9.38,39.47,9.37a98.78,98.78,0,0,0,42.91-9.37,92.07,92.07,0,0,0,32.93-25.9,82.13,82.13,0,0,0,16.92-37.61q3.75-21.33-3.61-37.87A55.17,55.17,0,0,0,7069.33,1185.69Zm-30.05,81.86a36.58,36.58,0,0,1-12.72,11.58,32.69,32.69,0,0,1-15.65,3.91,25.38,25.38,0,0,1-14.28-3.91,22,22,0,0,1-8.63-11.58q-2.68-7.68-.79-18.35,1.92-10.93,7.24-18.22a37.42,37.42,0,0,1,12.65-11.19,32.8,32.8,0,0,1,15.65-3.9,25.48,25.48,0,0,1,14.28,3.9,22.48,22.48,0,0,1,8.7,11.19q2.75,7.29.82,18.22A45.22,45.22,0,0,1,7039.28,1267.55Z" fill="#575756"/><path d="M7176.21,1195.78l3-17.11h-47.37L7106.94,1320h49.45l11.43-64.81q3.26-18.48,14.07-26.68t25.91-8.2c1.74,0,3.47,0,5.19.13s3.67.31,5.87.65l7.89-44.77q-20,0-35.39,8.07A59.78,59.78,0,0,0,7176.21,1195.78Z" fill="#575756"/><path d="M7374.31,1265.06l-19.4-86.39h-50.75l35.18,143.06a33,33,0,0,1-7.89,8.42q-5.19,3.64-13.52,3.64a29.64,29.64,0,0,1-11.19-2.21,28.64,28.64,0,0,1-9.25-5.86l-23.5,34.36q6.27,5.72,17.11,9.24a70.25,70.25,0,0,0,21.77,3.51,82,82,0,0,0,26.37-4.16,66.2,66.2,0,0,0,23.5-14.45q11.17-10.28,21.94-28.5l86.58-147h-46.85Z" fill="#575756"/><path d="M7591.17,1185.69q-16.44-9.36-39.6-9.37a98,98,0,0,0-42.77,9.37,92.17,92.17,0,0,0-32.81,25.9,82.74,82.74,0,0,0-17,37.87q-3.72,21.09,3.65,37.61a55.29,55.29,0,0,0,23.67,25.9q16.32,9.38,39.48,9.37a98.71,98.71,0,0,0,42.9-9.37,92,92,0,0,0,32.94-25.9,82.22,82.22,0,0,0,16.91-37.61q3.77-21.33-3.6-37.87A55.19,55.19,0,0,0,7591.17,1185.69Zm-30.05,81.86a36.55,36.55,0,0,1-12.71,11.58,32.69,32.69,0,0,1-15.65,3.91,25.36,25.36,0,0,1-14.28-3.91,21.9,21.9,0,0,1-8.63-11.58q-2.68-7.68-.8-18.35,1.94-10.93,7.25-18.22a37.39,37.39,0,0,1,12.64-11.19,32.81,32.81,0,0,1,15.66-3.9,25.43,25.43,0,0,1,14.27,3.9,22.37,22.37,0,0,1,8.7,11.19q2.74,7.29.82,18.22A45.08,45.08,0,0,1,7561.12,1267.55Z" fill="#575756"/><path d="M7740.28,1247.12q-2,11.46-6.71,18.87a29,29,0,0,1-11.41,10.8,30.64,30.64,0,0,1-14,3.38q-11.19,0-16-7.15t-2-23.56l12.49-70.79h-49.46l-13.9,78.86q-3.95,22.4,1.18,36.83t17.61,21.21q12.47,6.77,29.65,6.77a67.6,67.6,0,0,0,31.15-7.68,62,62,0,0,0,13.8-9.63l-2.64,15h46.85l24.92-141.33h-49.45Z" fill="#575756"/><path d="M7839.63,1263.78a35.2,35.2,0,0,0-22.48,7.93,33.22,33.22,0,0,0-12.29,21q-2.34,13.27,4.81,21.47t19.63,8.2a35.61,35.61,0,0,0,34.91-29.67q2.29-13-4.9-21T7839.63,1263.78Z" fill="#575756"/><path d="M7913.28,1263.78a35.2,35.2,0,0,0-22.48,7.93,33.21,33.21,0,0,0-12.28,21q-2.34,13.27,4.8,21.47t19.64,8.2a35.59,35.59,0,0,0,34.9-29.67q2.3-13-4.89-21T7913.28,1263.78Z" fill="#575756"/><path d="M8006.62,1271.71q-7.19-7.93-19.68-7.93a35.2,35.2,0,0,0-22.48,7.93,33.22,33.22,0,0,0-12.29,21q-2.34,13.27,4.81,21.47t19.63,8.2a35.61,35.61,0,0,0,34.91-29.67Q8013.82,1279.65,8006.62,1271.71Z" fill="#575756"/><path d="M1331.48,633.1l-.54,366.38,0,15.4-.06,40.7S1227,969.33,1101.65,830.41q-3.78-4.18-7.58-8.44c-40.57-45.33-83.19-96.05-125.11-151-45.7-59.89-90.57-124.84-131.09-193.41,0,0-1.54-.19-4.42-.64-23.6-3.67-137-24.79-224-102.4,0,0,98.88,13.41,199-17.94,0,0-34-141.52-118.27-239.77,0,0,177,111,195.91,203.38,0,0,180.47,22.93,310.11,128.27q18.13,14.67,34.09,28.46C1294.85,533,1331.57,580,1331.48,633.1Z" fill="url(#linear-gradient)"/><path d="M1331.69,997.23h0c0,7-.09,13.53-.14,19.56-.17,18.62-.4,32.29-.69,38.78-1.82,39.14-66.29,82.39-138.27,103.09-9.31,2.68-18.75,5-28.19,6.84-4.52,1.34-9.12,2.65-13.81,3.9-19.63,5.31-40.64,9.9-62.29,13.56q-10.92,1.85-22,3.36c-116.86,16-244.27,3.6-267.9-70.61-19.94-54.43,28.75-112.39,103.77-169.71q8.37-6.39,17.16-12.78c15.1-11,31.06-21.92,47.58-32.8q16.79-11.05,34.24-22c25.8-16.23,52.4-32.27,78.78-48l14.16-8.44c79.54-47.35,155.38-91.84,199.11-130.67,24-21.25,38.27-40.81,38.3-58.2C1331.48,633.1,1332.4,878.7,1331.69,997.23Z" fill="url(#linear-gradient-2)"/><path d="M923.89,1077.51a25.09,25.09,0,1,1,17.37-30.94A25.08,25.08,0,0,1,923.89,1077.51Z" fill="#1d1d1b"/></g></g></svg>